<?xml version="1.0" encoding="UTF-8"?>
<svg id="Calque_2" data-name="Calque 2" xmlns="http://www.w3.org/2000/svg" viewBox="0 0 385.91 146.63">
  <defs>
    <style>
      .cls-1 {
        fill: none;
      }

      .cls-2 {
        fill: #c22427;
      }

      .cls-3 {
        fill: #161412;
      }
    </style>
  </defs>
  <g id="Calque_1-2" data-name="Calque 1">
    <g>
      <rect class="cls-1" width="385.91" height="146.63"/>
      <g>
        <g>
          <path class="cls-2" d="M16.56,120.55c.04-.2.06-.37.08-.5.01-.13-.03-.27-.14-.42.05-.22.09-.39.13-.51.03-.12.04-.29,0-.51.12-.35.3-.65.54-.9.24-.25.5-.45.79-.62.29-.17.59-.31.9-.43.31-.12.61-.21.88-.3,0-.05-.03-.08-.08-.08s-.07-.03-.04-.1c.7-.14,1.41-.33,2.12-.59.71-.26,1.44-.49,2.18-.69.74-.2,1.51-.33,2.29-.38s1.6.06,2.46.32c.05.16.12.32.21.47s.19.3.28.44c.1.14.19.28.26.42.08.14.12.28.14.43.16.15.28.31.38.48s.11.4.05.68c-.14.11-.29.22-.45.33s-.32.21-.49.31c-.59-.15-1.17-.2-1.76-.16-.59.04-1.11.09-1.58.14-.14-.16-.31-.24-.51-.23-.2,0-.4.04-.62.1-.21.06-.43.12-.64.18-.21.06-.4.08-.59.05-.14.14-.33.23-.57.28-.23.05-.48.08-.74.11-.01.07,0,.12.04.14.04.03.05.08.02.16.09.12.21.21.37.25.16.05.32.09.48.13.16.04.31.1.44.17.13.07.21.19.25.36.23.01.44.08.61.19.17.12.31.26.43.42.12.16.2.34.25.52.05.18.07.35.06.5.05.14.11.19.17.16.06-.03.13,0,.21.1.05.2.17.42.36.64s.34.47.44.72c.03.41.05.77.07,1.1s-.04.65-.17.96c-.22.6-.54,1.13-.96,1.61-.42.48-.89.89-1.42,1.25-.53.36-1.08.67-1.67.94-.59.27-1.17.49-1.74.66-.05-.01-.11-.01-.19,0-.07.01-.09-.03-.05-.12-.12.11-.25.18-.4.2-.15.03-.31.04-.49.03-.18,0-.35-.02-.53-.03-.18-.01-.35,0-.52.02-.1-.11-.2-.22-.28-.33-.08-.11-.15-.24-.21-.39-.07-.01-.09-.06-.09-.13,0-.07-.02-.11-.09-.11,0-.05,0-.09.02-.12.01-.03.03-.05.04-.08.05-.04.07-.07.07-.09,0-.02-.03-.04-.06-.06-.03-.02-.07-.04-.1-.07-.03-.03-.04-.06-.03-.1.06-.12.09-.27.07-.44s-.04-.34-.05-.52c-.01-.18,0-.34.04-.5.04-.16.15-.29.33-.4.53.05,1.04.03,1.52-.08.48-.11.93-.26,1.35-.45.42-.19.83-.4,1.21-.62.38-.22.76-.43,1.12-.62.04-.14.1-.25.19-.35.08-.09.17-.19.26-.27.09-.09.18-.18.25-.28.08-.1.14-.23.18-.38.01-.05.01-.09,0-.12-.01-.03-.03-.05-.06-.07-.03-.02-.05-.04-.08-.07-.03-.03-.04-.07-.04-.12-.04-.01-.08-.03-.11-.04-.03-.01-.06-.02-.09-.02-.34-.18-.7-.33-1.08-.45s-.7-.26-.96-.41c-.16.11-.31.14-.47.08s-.35-.11-.57-.16c-.55-.03-1.07-.08-1.55-.16s-.96-.22-1.42-.43c-.03-.08-.06-.15-.1-.21-.04-.06-.13-.08-.27-.05-.09-.14-.19-.26-.28-.38-.1-.12-.19-.25-.26-.4Z"/>
          <path class="cls-2" d="M38.85,123.62c-.01.16,0,.32.04.47s.09.3.15.44.11.29.17.44.09.3.12.45c.03.19.03.4,0,.62-.03.22-.07.44-.14.65s-.15.4-.25.57c-.1.17-.23.3-.37.38-.18.24-.4.43-.67.57-.26.14-.5.3-.72.49-.14.09-.3.16-.48.2-.18.04-.36.08-.54.12-.14.08-.31.17-.51.25-.2.09-.4.17-.61.25-.21.07-.42.13-.63.16s-.39.04-.55.03c-.39.15-.77.25-1.14.3s-.8.02-1.3-.09c-.47.07-.9.05-1.3-.06s-.75-.28-1.06-.52c-.31-.24-.57-.52-.8-.86-.23-.33-.41-.68-.56-1.05-.1-.77-.08-1.48.08-2.11.16-.63.38-1.22.67-1.75.29-.54.63-1.03,1.01-1.49.38-.45.74-.9,1.09-1.33.08.03.14.02.19-.01.05-.03.09-.08.13-.14s.08-.12.13-.17c.05-.05.1-.09.17-.1.09-.2.22-.36.4-.46.18-.1.32-.25.42-.44.12-.03.21-.07.29-.12.08-.05.15-.12.23-.18.07-.07.15-.13.22-.19s.17-.1.27-.13v-.22c.23-.11.41-.24.52-.38s.24-.32.4-.52c.12-.01.21-.02.28-.02s.18-.01.32-.04c.1-.19.2-.33.28-.43.08-.09.21-.2.38-.31.16.08.33.14.52.16s.35.12.5.26c.01.14.05.24.12.32.06.08.14.14.21.2s.15.13.23.19c.07.07.12.16.15.28.05.01.09,0,.11-.02.02-.03.06-.03.11-.02.04.19.08.32.14.38.05.06.1.18.16.36-.07.14-.11.27-.15.42-.03.14-.11.25-.24.32-.01.09.01.15.08.15.07,0,.1.04.12.11.01.12,0,.21-.06.26.31.53.59,1.09.84,1.68.25.59.53,1.15.84,1.68ZM36.41,125.56c.05-.15.12-.27.21-.37s.13-.24.15-.43c-.07-.11-.1-.19-.12-.25s-.02-.16-.02-.3c-.29-.42-.53-.87-.74-1.36-.21-.48-.44-.93-.7-1.35-.03.05-.07.11-.14.16-.07.05-.14.04-.22-.04-.03.11-.07.19-.14.23-.07.05-.14.07-.22.06-.08,0-.16-.03-.24-.06-.08-.03-.16-.08-.23-.13-.38.31-.76.62-1.13.92-.38.3-.72.65-1.02,1.04-.05.03-.08.04-.1.03-.01,0-.05,0-.12.03-.1.26-.23.49-.38.7-.15.21-.3.42-.44.64-.14.22-.27.45-.37.69-.1.24-.16.53-.18.86.22.19.48.31.78.35s.61.05.93.02c.32-.03.63-.07.94-.13.31-.06.59-.09.85-.09.55-.14,1.02-.32,1.41-.54s.8-.45,1.23-.68Z"/>
          <path class="cls-2" d="M45.21,129.51c-.37.12-.76.24-1.19.37s-.86.18-1.29.18c-.65,0-1.17-.17-1.54-.51-.07-.15-.12-.25-.18-.31-.04-.05-.08-.11-.11-.17-.03-.06-.06-.15-.07-.25-.16-.19-.28-.41-.37-.66-.09-.25-.15-.51-.19-.77-.03-.26-.04-.53-.02-.81.02-.27.06-.53.13-.77.03-.05.04-.11.05-.16,0-.05.02-.12.03-.18.05-.22.11-.43.17-.63.06-.2.14-.38.24-.53-.05-.12-.05-.26,0-.41.05-.15.11-.28.18-.41.18-.52.34-.95.46-1.31.12-.36.25-.72.38-1.07.22-.61.43-1.22.63-1.81.2-.6.37-1.24.53-1.94.1-.07.18-.12.23-.14.08-.03.14-.05.2-.06.23.12.51.24.82.36.31.12.57.17.78.17.1.07.17.12.2.15.03.03.05.06.08.09.14.18.27.36.37.54.1.18.14.43.1.72-.08.12-.14.18-.18.18-.07.27-.13.5-.21.69-.07.19-.15.38-.23.57-.09.2-.18.41-.25.61-.08.2-.14.45-.2.75-.05.07-.09.13-.11.18-.02.05-.04.12-.07.18-.03.07-.06.14-.09.21-.03.08-.08.14-.15.19-.04.35-.1.64-.19.86-.08.22-.17.44-.26.65-.16.39-.3.79-.42,1.18-.12.39-.2.84-.23,1.35.07-.03.13-.04.19-.04h.17c.12,0,.25.02.41.06.39-.22.82-.35,1.28-.39s.92-.07,1.38-.08h.55c.18,0,.35-.01.51-.04.12.07.19.11.22.11.03,0,.08.01.15.01.09,0,.17,0,.23.02.16.15.31.26.45.33s.29.13.45.18c.14.05.28.11.42.17.14.06.27.15.4.25l.14.88c.09.12.13.2.12.25,0,.11-.03.19-.08.24l.04.22c-.2.04-.33.09-.4.14-.07.05-.14.12-.21.18-.1.01-.18.02-.22.02h-.13c-.18,0-.4.03-.67.1-.35-.12-.72-.18-1.1-.18-.14,0-.29,0-.45.02-.16.01-.31.03-.47.04-.16.03-.32.05-.48.06-.16.01-.33.02-.5.02l-.45.12Z"/>
          <path class="cls-2" d="M61.46,118.14c.03.3.07.56.14.77.06.22.14.43.22.63.06.19.13.38.19.56s.1.41.13.66c-.1.35-.18.68-.22.98-.05.3-.09.61-.15.94-.21.48-.41.9-.61,1.26-.2.37-.35.69-.47.96-.07.07-.12.15-.17.23-.05.09-.09.18-.15.27-.03.04-.06.1-.1.18s-.07.14-.1.16l-.39-.14-.08.51-.27.08-.2.24c-.25.45-.51.83-.78,1.13-.27.31-.58.58-.93.82-.35.24-.74.46-1.17.66-.44.2-.93.43-1.48.67-.22-.03-.41-.04-.58-.05s-.32-.02-.46-.03c-.25,0-.55-.02-.92-.06-.04-.11-.1-.18-.18-.22-.08-.04-.15-.06-.22-.06-.22-.11-.39-.27-.5-.48-.11-.21-.22-.44-.32-.68-.07-.15-.13-.29-.2-.42-.07-.13-.14-.26-.22-.4l.33-.1-.43-.49s-.06-.08-.1-.11c-.04-.03-.07-.07-.1-.11l-.02-.33c-.04-.94-.06-1.8-.05-2.58,0-.78.11-1.48.3-2.09v-.22c.04-.3.08-.55.12-.74.04-.2.07-.38.1-.56.04-.3.1-.58.18-.84.18-.04.32-.12.41-.23.09-.12.17-.22.23-.32.18-.01.31.01.37.08s.13.18.2.33c.06.12.15.26.24.41.1.15.24.27.44.35.03.11.06.22.11.34.05.12.09.24.15.38.1.23.2.47.28.72.08.25.13.49.15.72-.13.26-.23.56-.3.9-.07.34-.12.68-.14,1.03-.02.35-.01.68.02,1,.03.32.09.59.17.8l.12.27.33-.04c.39-.11.75-.23,1.07-.36.32-.13.62-.28.89-.46.27-.18.53-.38.78-.62.25-.24.51-.51.78-.83.27-.31.51-.67.71-1.07s.37-.82.51-1.25c.14-.43.24-.87.31-1.29.07-.43.12-.83.15-1.21.22-.08.33-.25.33-.49l-.04-.22c-.05-.08-.05-.18,0-.28.08-.26.26-.45.55-.59.21.14.39.28.56.45.16.16.32.33.46.49Z"/>
          <path class="cls-2" d="M72.76,119.93c-.33,0-.68.02-1.06.07-.38.05-.75.1-1.11.15-.26.04-.51.08-.75.1-.24.03-.46.05-.65.06-.09.3-.18.56-.27.79-.09.23-.19.46-.29.67-.1.23-.2.47-.28.7-.08.24-.17.49-.24.76-.13.22-.24.42-.32.6-.08.18-.15.39-.21.62-.16.2-.27.42-.35.64s-.14.42-.18.58l-.08.25c-.08.08-.12.15-.14.19-.01.05-.05.09-.1.13-.01.15-.06.3-.14.45-.03.07-.05.13-.06.19s-.02.1-.02.13c0,.14-.03.22-.1.26.01.07.01.14,0,.21-.01.07-.03.15-.04.21-.04.16-.05.29-.04.39.04.05.07.1.11.14s.06.1.07.16c.08.05.14.09.18.1.05.04.13.09.23.14l.18.2c.06.39,0,.71-.18.94-.2.26-.53.39-1,.39h-.23c-.06-.07-.1-.12-.12-.16-.1-.04-.19-.07-.25-.1-.07-.03-.12-.08-.18-.16-.17-.08-.31-.15-.41-.2l-.18-.1v-.25c-.09-.12-.16-.26-.21-.41s-.08-.3-.11-.45c-.03-.12-.06-.24-.09-.35-.03-.11-.08-.2-.13-.28-.03-.79.05-1.45.21-2s.35-1.07.53-1.57c.1-.27.21-.55.31-.83.1-.28.2-.57.27-.87l.18-.2c.09-.22.17-.4.23-.54.06-.14.12-.29.19-.44.04-.1.07-.19.11-.28.03-.09.06-.17.09-.23-.08,0-.15,0-.21.01-.07,0-.13.02-.2.03-.08.01-.15.02-.22.03-.07,0-.13.01-.2.01-.09,0-.16,0-.2-.02-.14.07-.3.1-.47.1h-.2s-.08,0-.11-.01c-.03,0-.06-.01-.09-.01-.13,0-.23.02-.31.06h-.65s-.06,0-.1.01c-.04,0-.07.01-.1.01-.09,0-.19-.01-.29-.03-.1-.02-.22-.06-.33-.13-.16-.22-.26-.33-.31-.35l-.18-.25c-.01-.08-.03-.16-.06-.23-.03-.07-.05-.16-.08-.25-.05-.14-.1-.28-.15-.44-.05-.16-.07-.34-.07-.56.01-.11.04-.19.08-.25.04-.05.07-.1.1-.14l.06-.31.25.02h.55c.42,0,.84-.02,1.27-.05s.87-.07,1.33-.11c.26-.03.52-.05.79-.08s.54-.05.83-.08c.05-.12.1-.24.16-.35l.2-.1c.23-.01.4.02.5.09.1.08.18.15.24.21.29-.03.58-.06.87-.09.29-.03.59-.08.89-.13.44-.07.89-.13,1.34-.18.45-.05.88-.08,1.3-.08.18,0,.36,0,.53.02s.33.03.47.06l.2.14c.04.08.09.16.17.22.07.07.15.14.23.2.16.15.31.33.47.53.16.2.21.5.18.9-.1.16-.18.26-.23.29l-.18.24-.2-.02c-.08,0-.15.01-.22.03s-.13.04-.2.07c-.05.03-.1.05-.16.07-.05.02-.11.04-.18.05-.12,0-.21,0-.28-.01s-.15-.01-.22-.01Z"/>
          <path class="cls-2" d="M75.38,128.31c.06.41.04.73-.07.96-.11.23-.27.41-.47.52s-.43.18-.69.19c-.26.01-.51,0-.74-.04-.13-.19-.25-.43-.35-.71-.1-.28-.2-.58-.29-.89-.09-.31-.17-.61-.24-.91-.07-.3-.13-.56-.19-.79.06-.16.11-.35.13-.56s.03-.42.04-.64c0-.22.01-.44.02-.66,0-.22.02-.44.05-.64.09-.57.23-1.11.4-1.63s.32-1.05.42-1.61c.03-.12.02-.24-.03-.35-.05-.11-.06-.21-.03-.31.01-.05.05-.09.12-.11.06-.02.1-.06.12-.13.04-.15.05-.27.03-.37-.02-.1,0-.21.07-.35.06-.11.15-.27.24-.48s.13-.43.11-.66c.12-.08.23-.18.33-.28s.21-.21.32-.3c.11-.09.23-.17.37-.23s.3-.1.5-.1c.1.14.17.28.21.45l.1.49c.03.16.08.32.15.46.06.14.18.25.33.34v.41c0,.16,0,.32.02.48.01.16.04.3.09.43.05.13.12.21.23.26-.23.65-.45,1.3-.66,1.94s-.37,1.28-.5,1.93c-.13.65-.21,1.29-.24,1.95s0,1.31.13,1.98Z"/>
          <path class="cls-2" d="M88.66,123.62c-.01.16,0,.32.04.47s.09.3.15.44.11.29.17.44.09.3.12.45c.03.19.03.4,0,.62-.03.22-.07.44-.14.65s-.15.4-.25.57c-.1.17-.23.3-.37.38-.18.24-.4.43-.67.57-.26.14-.5.3-.72.49-.14.09-.3.16-.48.2-.18.04-.36.08-.54.12-.14.08-.31.17-.51.25-.2.09-.4.17-.61.25-.21.07-.42.13-.63.16s-.39.04-.55.03c-.39.15-.77.25-1.14.3s-.8.02-1.3-.09c-.47.07-.9.05-1.3-.06s-.75-.28-1.06-.52c-.31-.24-.57-.52-.8-.86-.23-.33-.41-.68-.56-1.05-.1-.77-.08-1.48.08-2.11.16-.63.38-1.22.67-1.75.29-.54.63-1.03,1.01-1.49.38-.45.74-.9,1.09-1.33.08.03.14.02.19-.01.05-.03.09-.08.13-.14s.08-.12.13-.17c.05-.05.1-.09.17-.1.09-.2.22-.36.4-.46.18-.1.32-.25.42-.44.12-.03.21-.07.29-.12.08-.05.15-.12.23-.18.07-.07.15-.13.22-.19s.17-.1.27-.13v-.22c.23-.11.41-.24.52-.38s.24-.32.4-.52c.12-.01.21-.02.28-.02s.18-.01.32-.04c.1-.19.2-.33.28-.43.08-.09.21-.2.38-.31.16.08.33.14.52.16s.35.12.5.26c.01.14.05.24.12.32.06.08.14.14.21.2s.15.13.23.19c.07.07.12.16.15.28.05.01.09,0,.11-.02.02-.03.06-.03.11-.02.04.19.08.32.14.38.05.06.1.18.16.36-.07.14-.11.27-.15.42-.03.14-.11.25-.24.32-.01.09.01.15.08.15.07,0,.1.04.12.11.01.12,0,.21-.06.26.31.53.59,1.09.84,1.68.25.59.53,1.15.84,1.68ZM86.21,125.56c.05-.15.12-.27.21-.37s.13-.24.15-.43c-.07-.11-.1-.19-.12-.25s-.02-.16-.02-.3c-.29-.42-.53-.87-.74-1.36-.21-.48-.44-.93-.7-1.35-.03.05-.07.11-.14.16-.07.05-.14.04-.22-.04-.03.11-.07.19-.14.23-.07.05-.14.07-.22.06-.08,0-.16-.03-.24-.06-.08-.03-.16-.08-.23-.13-.38.31-.76.62-1.13.92-.38.3-.72.65-1.02,1.04-.05.03-.08.04-.1.03-.01,0-.05,0-.12.03-.1.26-.23.49-.38.7-.15.21-.3.42-.44.64-.14.22-.27.45-.37.69-.1.24-.16.53-.18.86.22.19.48.31.78.35s.61.05.93.02c.32-.03.63-.07.94-.13.31-.06.59-.09.85-.09.55-.14,1.02-.32,1.41-.54s.8-.45,1.23-.68Z"/>
          <path class="cls-2" d="M93.86,126.03c-.12.03-.2.1-.25.21-.05.12-.1.23-.15.36-.05.12-.09.24-.14.34-.05.1-.11.15-.21.15-.01.11-.05.2-.11.28s-.11.17-.17.26c-.05.09-.09.18-.12.28-.03.1-.01.22.04.36-.1.08-.17.2-.2.35-.03.15-.06.29-.09.43-.03.14-.09.25-.17.35-.08.09-.22.14-.43.12-.04.05-.05.09-.02.1.03.01.05.06.06.14-.14-.03-.25-.02-.32.03-.07.05-.16.08-.26.09-.25-.08-.45-.22-.62-.43-.16-.2-.31-.43-.43-.68-.12-.25-.23-.51-.33-.76-.1-.26-.19-.48-.28-.67.04-.15.05-.3.02-.44-.03-.14-.07-.26-.14-.36.64-1.41,1.34-2.92,2.09-4.52.76-1.6,1.47-3.19,2.15-4.75.3.12.6.26.89.42.29.16.56.34.8.54s.45.44.62.7c.17.26.28.56.33.89-.03.08-.06.11-.09.09-.03-.02-.06-.01-.09.03.05.07.08.12.09.14,0,.03,0,.05,0,.08,0,.03,0,.07,0,.11s.02.11.06.19c-.05-.01-.09,0-.11.02s-.06.03-.13,0c.05.15.07.27.05.37-.02.1-.05.18-.09.25-.04.08-.07.16-.1.25-.03.09-.02.2.02.34-.04,0-.07.01-.09.03s-.04.04-.05.06c-.01.02-.03.04-.05.06s-.05.02-.09.01c.04.3.05.6.04.9-.01.3-.02.6-.03.91,0,.31,0,.62,0,.96.01.33.06.68.14,1.03.47-.28.84-.65,1.12-1.1.28-.45.51-.95.68-1.51.18-.56.31-1.16.4-1.79.09-.64.19-1.29.29-1.96.12-.12.21-.27.27-.45.06-.18.12-.36.18-.56.05-.2.1-.39.16-.59.05-.2.12-.38.2-.54.2.03.36.09.5.19s.26.21.38.33c.12.12.24.22.37.33.13.1.29.17.49.19.16.23.3.45.43.67.13.22.21.45.25.69-.07.11-.11.23-.15.37-.03.14-.07.27-.11.41-.04.14-.09.26-.16.38-.07.12-.16.21-.27.3-.04.35-.09.68-.15.97-.06.29-.12.58-.18.87-.06.29-.11.58-.15.89-.04.31-.05.64-.04,1.01-.1.31-.22.65-.33,1s-.21.67-.27.96c-.21.18-.37.39-.49.63-.12.25-.24.49-.37.73-.05.05-.08.07-.1.04-.01-.03-.06-.05-.14-.06.01.05.01.1,0,.12s-.03.05-.05.07-.03.05-.04.09c0,.04,0,.1.03.16-.18.08-.35.2-.49.35s-.3.28-.46.41c-.16.12-.36.2-.59.25s-.52,0-.89-.14c-.53-.41-1.01-.88-1.42-1.41s-.75-1.16-1.01-1.9Z"/>
          <path class="cls-2" d="M101.46,120.57c.09-.29.24-.53.44-.73.2-.2.42-.38.66-.52.24-.14.49-.26.75-.36s.51-.18.74-.24c.52-.23,1.08-.45,1.67-.66.59-.21,1.2-.4,1.82-.56s1.25-.27,1.91-.32,1.34.04,2.05.25c.04.14.1.27.18.39.08.12.16.24.24.37.08.12.16.24.23.36.06.12.1.24.12.36.13.12.23.25.31.4.08.14.09.33.04.56-.13.11-.26.21-.38.3-.12.09-.26.17-.4.24-.48-.12-.97-.16-1.47-.12-.5.04-.94.08-1.33.1-.12-.12-.26-.18-.42-.18s-.33.03-.51.08c-.18.05-.35.11-.53.16-.18.05-.34.07-.5.04-.13.11-.29.18-.48.21-.19.03-.39.06-.62.09-.01.07,0,.11.04.13s.05.07.02.13c.08.1.18.16.3.2.12.04.25.08.39.12s.26.09.36.15c.1.06.18.16.21.3.2,0,.36.05.51.14.14.1.26.21.35.35.09.14.16.28.21.44.05.16.07.3.07.42.04.11.08.16.14.14s.11.01.18.08c.04.18.14.36.29.54.16.18.28.38.37.6.03.34.05.64.06.91.01.26-.03.53-.14.81-.2.5-.47.95-.81,1.35s-.74.74-1.17,1.05c-.44.31-.9.57-1.4.78-.5.22-.98.4-1.45.55-.05-.01-.1-.01-.16,0-.05.01-.07-.02-.04-.1-.1.09-.22.16-.34.18-.12.03-.26.04-.4.03-.14,0-.29-.02-.44-.03-.15-.01-.29,0-.42.02-.09-.09-.17-.19-.24-.27s-.13-.2-.17-.34c-.07,0-.09-.03-.09-.1,0-.07-.02-.1-.07-.1.08-.14.11-.21.11-.23,0-.02-.03-.04-.06-.05-.03-.01-.06-.03-.09-.05-.03-.02-.03-.05-.02-.09.05-.11.07-.23.06-.38-.01-.14-.03-.29-.04-.44s0-.29.03-.43c.03-.14.13-.25.28-.33.44.05.86.04,1.26-.05.4-.09.77-.21,1.12-.38.35-.16.69-.34,1.01-.53.32-.19.64-.36.95-.51.04-.12.09-.22.17-.31.07-.08.15-.16.22-.22s.15-.14.22-.22c.06-.08.11-.18.14-.31.01-.09,0-.15-.07-.17s-.09-.07-.09-.15l-.21-.06c-.25-.15-.53-.27-.84-.38-.31-.1-.58-.21-.8-.34-.14.08-.28.1-.4.06s-.28-.08-.48-.12c-.44-.03-.87-.07-1.28-.14s-.81-.19-1.18-.37c-.03-.07-.06-.13-.1-.18-.04-.05-.11-.07-.21-.04-.08-.11-.16-.21-.23-.32s-.15-.21-.21-.34c.03-.16.05-.3.06-.42.01-.12-.03-.23-.12-.34.05-.18.09-.32.12-.43.03-.11.03-.25,0-.43Z"/>
          <path class="cls-2" d="M128.19,128.03c-.08.23-.19.47-.34.7s-.33.45-.53.63c-.2.18-.43.34-.67.46s-.51.19-.78.2c-.17-.04-.28-.08-.34-.13s-.12-.09-.19-.13c-.04-.03-.07-.05-.11-.07s-.06-.04-.09-.05l-.23-.1.08-.27c.03-.11.02-.19-.02-.25-.04-.06-.12-.15-.23-.25l-.12-.12s-.07-.08-.1-.12l-.33-.39.53-.14c.33-.09.54-.22.66-.37.11-.15.15-.4.13-.75-.26-.05-.48-.06-.66-.02-.18.04-.35.09-.54.14-.23.07-.47.13-.71.17-.24.05-.51.07-.79.07-.1,0-.2,0-.29-.01-.09,0-.19-.02-.29-.03l-.2-.04c-.03-.15-.05-.23-.08-.25-.03-.02-.05-.04-.08-.07-.07-.07-.13-.16-.21-.28-.07-.12-.09-.26-.05-.44-.07-.12-.1-.24-.12-.37-.08.16-.14.33-.18.51l-.08.2-.2.04s-.05.04-.06.09c-.01.05-.02.09-.02.11l-.1.35s-.05.05-.08.07c-.03.02-.05.04-.08.07-.03.12-.06.24-.1.37-.04.12-.08.24-.12.35-.07.18-.12.35-.17.52-.05.17-.06.34-.05.5l-.08.22c-.06.08-.14.15-.21.19-.08.05-.16.09-.23.13-.03.03-.06.05-.11.07-.05.02-.08.04-.11.05l-.06.22-.23.04c-.14.03-.24.05-.3.06-.06.01-.13.02-.21.02l-.2-.02c-.14-.12-.25-.22-.33-.3s-.17-.15-.27-.21c-.12-.16-.18-.29-.2-.37s-.03-.16-.04-.22c-.03-.08-.04-.15-.05-.2,0-.05-.02-.09-.05-.12l-.25-.25.21-.18.02-.35c.26-.69.54-1.36.83-2,.29-.64.6-1.29.91-1.96.1-.22.21-.43.3-.65.1-.22.2-.43.3-.65-.01-.04-.02-.09-.02-.14s.01-.12.04-.18c.14-.23.26-.44.35-.62.09-.18.18-.37.27-.56.1-.23.21-.45.32-.67.11-.22.25-.44.42-.67l.31-.14s.08-.03.14-.05c.05-.02.11-.03.18-.03l.29.04c.36-.18.68-.42.96-.74.27-.32.55-.7.84-1.15l.2-.28.25.16c.07.04.16.08.27.11.12.03.24.07.37.11.23.05.46.12.66.18s.38.17.51.31c.08.22.12.38.14.49.01.11.03.22.06.33.04.23.07.46.11.69s.06.49.07.77c.06.23.12.46.17.68.05.22.09.45.13.68.06.33.13.64.2.95.06.31.15.59.25.87.1,0,.17,0,.2.02.06-.03.13-.05.21-.06.07-.01.15-.03.24-.04l.21-.02.08.2c.01.07.08.14.2.2.17.01.29.05.37.11s.15.13.21.19c.05.05.1.09.16.12l.29.12-.16.31c-.13.25-.32.48-.56.7-.24.22-.51.41-.81.56.01.08.02.16.03.23,0,.08.02.15.05.23.04.23.07.47.1.71.03.24.03.5,0,.75l-.04.08ZM122.54,124.5c.39-.03.75-.06,1.07-.09.32-.03.67-.09,1.07-.17-.09-.41-.19-.83-.29-1.27-.1-.44-.21-.88-.33-1.31l-.12.2c-.26.29-.51.6-.75.96-.24.35-.45.69-.62,1-.08.12-.16.25-.23.37-.08.12-.15.24-.21.37.08-.01.15-.02.22-.02s.14,0,.21-.02Z"/>
          <path class="cls-2" d="M139.12,124.23c-.01.07-.03.13-.04.17s-.03.09-.04.13-.02.09-.02.15v.24c-.39.72-.88,1.32-1.48,1.81-.59.49-1.25.92-1.96,1.29s-1.45.71-2.22,1.02c-.77.31-1.52.64-2.25.99-.31-.08-.55-.22-.71-.41s-.29-.41-.37-.66-.14-.53-.18-.84c-.03-.31-.06-.62-.09-.95.04-.15.09-.27.17-.38.07-.1.11-.25.11-.44.1-.35.21-.7.31-1.04.1-.34.17-.69.2-1.04.04-.11.11-.18.21-.22.06-.65.07-1.32,0-1.99-.06-.67-.17-1.3-.32-1.89.01-.14.03-.23.05-.3s.02-.1,0-.13c-.01-.11.02-.16.11-.16h.26c0-.2-.04-.41-.11-.61-.07-.2-.14-.43-.21-.69.09-.2.15-.4.18-.6.03-.2.08-.37.18-.52.7.23,1.38.51,2.02.84.65.33,1.28.56,1.91.71.47.35.95.7,1.45,1.05.5.35.94.73,1.35,1.14.4.41.74.89,1.02,1.42.27.53.43,1.16.47,1.9ZM134.49,125.36c.27-.11.54-.22.81-.35.27-.12.51-.26.74-.42.23-.16.43-.34.62-.54.18-.2.33-.45.45-.73-.08-.16-.18-.31-.31-.44-.13-.13-.26-.25-.39-.37s-.26-.23-.38-.36c-.12-.12-.22-.27-.3-.45-.17-.03-.32-.08-.45-.15s-.26-.15-.38-.22c-.12-.08-.25-.15-.39-.21-.14-.07-.3-.11-.48-.12-.29-.15-.54-.26-.77-.33-.23-.07-.4-.16-.52-.26-.09,0-.16.02-.22.06.13.52.23,1,.29,1.46.06.46.1.91.11,1.37,0,.45-.02.92-.07,1.4-.05.48-.12.99-.22,1.55.13-.01.25-.04.36-.09s.22-.1.33-.15c.11-.05.23-.1.35-.15.12-.05.27-.08.44-.09.04-.08.09-.15.17-.2.07-.05.14-.12.21-.18Z"/>
          <path class="cls-2" d="M149.45,127.76c.03.35-.01.65-.12.88-.1.23-.25.43-.43.59-.18.16-.39.29-.63.39-.23.09-.46.18-.68.26-.1-.07-.21-.14-.3-.21-.1-.07-.21-.13-.34-.17-.17-.33-.33-.61-.49-.87-.16-.25-.23-.54-.21-.87,0-.01,0-.09.03-.22.02-.14.05-.29.08-.45.03-.16.06-.32.08-.46.02-.14.03-.22.03-.24-.3.03-.61.1-.94.2-.33.11-.64.24-.95.39-.31.15-.59.3-.86.45-.27.15-.49.28-.66.39,0,.04-.03.14-.08.3-.05.16-.12.32-.2.49s-.16.32-.25.46c-.09.14-.18.2-.27.2.01.04.03.08.06.12.03.04.03.09,0,.16-.18.05-.35.13-.49.21-.14.09-.29.16-.45.22-.16.06-.33.09-.51.09s-.4-.07-.65-.2c0-.08-.03-.15-.1-.21-.07-.06-.13-.12-.21-.16s-.13-.09-.19-.12c-.05-.03-.08-.07-.08-.09-.07.01-.09-.03-.08-.14.01-.11.07-.14.16-.08-.14-.19-.23-.36-.26-.5s-.11-.32-.22-.54c.03-.03.05-.07.07-.14s.04-.13.05-.18c.01-.05.03-.1.06-.12.03-.03.06-.02.1.02-.03-.12-.03-.22,0-.31.03-.08.05-.16.08-.22.03-.07.05-.14.06-.2.01-.07,0-.14-.06-.22.21-.3.35-.62.41-.97.07-.35.1-.66.12-.95.09-.09.17-.23.24-.41.07-.18.13-.36.17-.54.04-.18.06-.36.05-.53,0-.17-.03-.31-.07-.42.01-.07.08-.09.21-.06.08-.45.13-.95.17-1.52s.09-1.1.17-1.61c.08-.51.21-.96.39-1.35.18-.39.48-.64.88-.76.08.29.18.54.3.75.12.22.26.43.41.62.15.2.3.4.45.6.15.2.29.43.42.69-.01.26-.04.56-.08.9-.04.34-.09.69-.15,1.04s-.12.69-.18,1.02c-.06.33-.11.6-.17.84.01.07.05.11.11.12s.07.07.03.18c.31-.08.64-.16.98-.22.34-.07.68-.14,1.02-.22.34-.08.67-.17.99-.27s.62-.23.89-.38c.07-.53.15-1.06.25-1.59.1-.53.12-1.07.04-1.63.06-.05.12-.12.16-.2.04-.08.1-.14.2-.16-.07-.26-.09-.53-.08-.82.01-.29.06-.56.15-.82.08-.26.21-.48.37-.66.16-.18.36-.3.6-.36.14.22.27.45.37.7s.21.5.32.75c.11.25.23.49.35.71.12.22.28.42.48.58.04.39.07.8.09,1.22.02.42.04.85.05,1.28-.1.52-.22,1.02-.34,1.5-.12.48-.21,1-.26,1.54-.09.11-.16.23-.22.37-.05.14-.1.28-.16.42-.05.14-.11.28-.18.41-.07.13-.14.24-.23.34.05.16.06.32.03.46-.03.14,0,.32.11.52Z"/>
          <path class="cls-2" d="M162,118.26c.01.1.02.17,0,.21,0,.05-.01.09-.02.13,0,.04,0,.08,0,.13s.01.12.04.21c-.27.46-.59.78-.95.95s-.75.29-1.16.37c-.42.08-.84.15-1.28.24-.44.08-.87.26-1.3.53-.17-.07-.32-.07-.46,0-.14.07-.34.09-.6.06-.08.08-.18.14-.29.17-.12.03-.23.07-.35.11.05.12.07.25.07.38,0,.13,0,.23.05.32.46.04.96.03,1.52-.02.55-.05,1.1-.09,1.63-.1.01.07,0,.11-.02.13-.03.02-.03.06-.02.11.09.07.18.15.27.25.09.1.18.2.27.3.09.1.19.17.28.23.1.06.21.09.34.07.05.11.09.23.11.36s0,.26-.05.4c-.21.15-.42.3-.63.46s-.43.3-.65.42-.47.22-.72.3c-.25.07-.54.1-.85.09h-.15s-.08-.02-.13-.06c-.1.07-.25.09-.44.06-.19-.03-.34,0-.44.06-.14-.07-.32-.1-.52-.09s-.38-.02-.54-.07c-.21.28-.4.59-.57.92-.17.33-.32.67-.45,1.04.44.07.81.09,1.1.08.29-.01.57-.04.83-.07s.53-.07.8-.1c.27-.03.62-.04,1.04-.03.26-.15.57-.25.93-.3.36-.05.69-.13.99-.23.1.04.2.11.27.21.08.1.15.2.22.29s.15.17.23.23.18.09.29.08c.05.05.09.12.11.19.02.08.04.15.05.21.01.07.04.13.07.17.03.05.09.06.17.05-.2.45-.42.79-.67,1.03-.25.24-.54.42-.87.54-.33.12-.69.22-1.09.29s-.84.15-1.32.24c-.12.03-.21.02-.29-.01-.08-.03-.17-.05-.27-.05-.3.07-.66.13-1.08.18s-.84.07-1.27.06-.84-.07-1.23-.17c-.39-.1-.71-.28-.96-.54-.1-.09-.17-.21-.21-.34-.03-.13-.12-.23-.26-.3-.01-.18-.04-.37-.08-.59-.04-.22-.08-.44-.12-.68-.04-.24-.07-.47-.09-.7-.02-.23,0-.44.03-.63.04-.2.12-.39.24-.55s.17-.34.13-.53c.07-.01.1-.05.12-.11.01-.06.06-.09.16-.07.08-.24.16-.48.25-.69.09-.22.19-.43.28-.63.1-.2.2-.41.29-.62s.19-.44.28-.7c-.18-.18-.32-.37-.4-.58-.08-.21-.15-.42-.19-.63s-.07-.43-.1-.65c-.03-.22-.07-.45-.14-.68.13-.2.29-.37.48-.5s.39-.23.62-.32.46-.15.72-.2c.26-.05.53-.12.82-.18.52-.18.99-.31,1.4-.41s.81-.17,1.21-.23c.4-.06.81-.12,1.24-.17.43-.05.92-.14,1.47-.24.12.12.23.18.33.18.05-.12.11-.16.19-.11.07.05.1.01.09-.11.13.23.3.42.5.58.2.16.43.29.67.4Z"/>
          <path class="cls-2" d="M161.84,120.57c.09-.29.24-.53.44-.73.2-.2.42-.38.66-.52.24-.14.49-.26.75-.36s.51-.18.74-.24c.52-.23,1.08-.45,1.67-.66.59-.21,1.2-.4,1.82-.56s1.25-.27,1.91-.32,1.34.04,2.05.25c.04.14.1.27.18.39.08.12.16.24.24.37.08.12.16.24.23.36.06.12.1.24.12.36.13.12.23.25.31.4.08.14.09.33.04.56-.13.11-.26.21-.38.3-.12.09-.26.17-.4.24-.48-.12-.97-.16-1.47-.12-.5.04-.94.08-1.33.1-.12-.12-.26-.18-.42-.18s-.33.03-.51.08c-.18.05-.35.11-.53.16-.18.05-.34.07-.5.04-.13.11-.29.18-.48.21-.19.03-.39.06-.62.09-.01.07,0,.11.04.13s.05.07.02.13c.08.1.18.16.3.2.12.04.25.08.39.12s.26.09.36.15c.1.06.18.16.21.3.2,0,.36.05.51.14.14.1.26.21.35.35.09.14.16.28.21.44.05.16.07.3.07.42.04.11.08.16.14.14s.11.01.18.08c.04.18.14.36.29.54.16.18.28.38.37.6.03.34.05.64.06.91.01.26-.03.53-.14.81-.2.5-.47.95-.81,1.35s-.74.74-1.17,1.05c-.44.31-.9.57-1.4.78-.5.22-.98.4-1.45.55-.05-.01-.1-.01-.16,0-.05.01-.07-.02-.04-.1-.1.09-.22.16-.34.18-.12.03-.26.04-.4.03-.14,0-.29-.02-.44-.03-.15-.01-.29,0-.42.02-.09-.09-.17-.19-.24-.27s-.13-.2-.17-.34c-.07,0-.09-.03-.09-.1,0-.07-.02-.1-.07-.1.08-.14.11-.21.11-.23,0-.02-.03-.04-.06-.05-.03-.01-.06-.03-.09-.05-.03-.02-.03-.05-.02-.09.05-.11.07-.23.06-.38-.01-.14-.03-.29-.04-.44s0-.29.03-.43c.03-.14.13-.25.28-.33.44.05.86.04,1.26-.05.4-.09.77-.21,1.12-.38.35-.16.69-.34,1.01-.53.32-.19.64-.36.95-.51.04-.12.09-.22.17-.31.07-.08.15-.16.22-.22s.15-.14.22-.22c.06-.08.11-.18.14-.31.01-.09,0-.15-.07-.17s-.09-.07-.09-.15l-.21-.06c-.25-.15-.53-.27-.84-.38-.31-.1-.58-.21-.8-.34-.14.08-.28.1-.4.06s-.28-.08-.48-.12c-.44-.03-.87-.07-1.28-.14s-.81-.19-1.18-.37c-.03-.07-.06-.13-.1-.18-.04-.05-.11-.07-.21-.04-.08-.11-.16-.21-.23-.32s-.15-.21-.21-.34c.03-.16.05-.3.06-.42.01-.12-.03-.23-.12-.34.05-.18.09-.32.12-.43.03-.11.03-.25,0-.43Z"/>
          <path class="cls-2" d="M174.97,128.31c.06.41.04.73-.07.96-.11.23-.27.41-.47.52s-.43.18-.69.19c-.26.01-.51,0-.74-.04-.13-.19-.25-.43-.35-.71-.1-.28-.2-.58-.29-.89-.09-.31-.17-.61-.24-.91-.07-.3-.13-.56-.19-.79.06-.16.11-.35.13-.56s.03-.42.04-.64c0-.22.01-.44.02-.66,0-.22.02-.44.05-.64.09-.57.23-1.11.4-1.63s.32-1.05.42-1.61c.03-.12.02-.24-.03-.35-.05-.11-.06-.21-.03-.31.01-.05.05-.09.12-.11.06-.02.1-.06.12-.13.04-.15.05-.27.03-.37-.02-.1,0-.21.07-.35.06-.11.15-.27.24-.48s.13-.43.11-.66c.12-.08.23-.18.33-.28s.21-.21.32-.3c.11-.09.23-.17.37-.23s.3-.1.5-.1c.1.14.17.28.21.45l.1.49c.03.16.08.32.15.46.06.14.18.25.33.34v.41c0,.16,0,.32.02.48.01.16.04.3.09.43.05.13.12.21.23.26-.23.65-.45,1.3-.66,1.94s-.37,1.28-.5,1.93c-.13.65-.21,1.29-.24,1.95s0,1.31.13,1.98Z"/>
          <path class="cls-2" d="M183.74,126.15c-.01.19-.06.37-.13.54-.07.17-.16.33-.26.49-.1.16-.22.31-.34.45-.12.14-.24.27-.36.38.04.18.04.31,0,.4-.03.09-.04.22-.03.4-.2.54-.49.91-.89,1.09-.4.18-.77.15-1.12-.11-.14-.11-.26-.25-.36-.42s-.23-.28-.4-.32c.04-.23.02-.46-.06-.69-.08-.23-.16-.35-.25-.37-.04-.28-.1-.59-.18-.92s-.15-.66-.22-.99c-.06-.33-.12-.66-.17-.98-.05-.32-.06-.61-.05-.89.01-.14,0-.26-.07-.37-.06-.11-.1-.24-.13-.39-.05-.31-.07-.64-.05-.99.02-.35.03-.68.03-.99s-.02-.62-.05-.97c-.03-.35-.06-.68-.09-1-.03-.32-.04-.61-.04-.88s.03-.47.1-.62c.08-.16.19-.3.32-.4.14-.1.26-.21.38-.34.29.03.51.15.68.37.17.22.23.42.2.61.27.18.49.41.65.68.16.28.29.59.39.94.1.35.17.71.21,1.1.04.39.07.77.1,1.14.03.37.05.73.08,1.07.03.34.08.63.16.88.48-.72.89-1.36,1.21-1.93s.66-1.1,1-1.62c.34-.52.72-1.04,1.13-1.57.42-.53.96-1.13,1.62-1.79.13.01.24.04.32.08.08.04.16.08.22.1.07.03.14.05.23.07s.22.02.37-.01c.05.14.09.23.12.3.03.06.05.12.07.18s.05.14.08.23c.03.1.09.23.17.41.04.04.05.1.04.16-.01.07-.02.13-.03.19,0,.06,0,.1,0,.13s.03.03.1,0c-.04.19-.11.36-.21.52-.1.16-.14.34-.13.56-.3.41-.63.83-.99,1.26-.36.43-.72.88-1.08,1.34-.36.46-.7.95-1.03,1.46-.33.51-.61,1.04-.84,1.6-.07,0-.11.02-.15.06-.03.04-.06.08-.09.13-.03.05-.06.09-.09.13-.03.04-.07.06-.13.06Z"/>
          <path class="cls-2" d="M197.86,118.26c.01.1.02.17,0,.21,0,.05-.01.09-.02.13,0,.04,0,.08,0,.13s.01.12.04.21c-.27.46-.59.78-.95.95s-.75.29-1.16.37c-.42.08-.84.15-1.28.24-.44.08-.87.26-1.3.53-.17-.07-.32-.07-.46,0-.14.07-.34.09-.6.06-.08.08-.18.14-.29.17-.12.03-.23.07-.35.11.05.12.07.25.07.38,0,.13,0,.23.05.32.46.04.96.03,1.52-.02.55-.05,1.1-.09,1.63-.1.01.07,0,.11-.02.13-.03.02-.03.06-.02.11.09.07.18.15.27.25.09.1.18.2.27.3.09.1.19.17.28.23.1.06.21.09.34.07.05.11.09.23.11.36s0,.26-.05.4c-.21.15-.42.3-.63.46s-.43.3-.65.42-.47.22-.72.3c-.25.07-.54.1-.85.09h-.15s-.08-.02-.13-.06c-.1.07-.25.09-.44.06-.19-.03-.34,0-.44.06-.14-.07-.32-.1-.52-.09s-.38-.02-.54-.07c-.21.28-.4.59-.57.92-.17.33-.32.67-.45,1.04.44.07.81.09,1.1.08.29-.01.57-.04.83-.07s.53-.07.8-.1c.27-.03.62-.04,1.04-.03.26-.15.57-.25.93-.3.36-.05.69-.13.99-.23.1.04.2.11.27.21.08.1.15.2.22.29s.15.17.23.23.18.09.29.08c.05.05.09.12.11.19.02.08.04.15.05.21.01.07.04.13.07.17.03.05.09.06.17.05-.2.45-.42.79-.67,1.03-.25.24-.54.42-.87.54-.33.12-.69.22-1.09.29s-.84.15-1.32.24c-.12.03-.21.02-.29-.01-.08-.03-.17-.05-.27-.05-.3.07-.66.13-1.08.18s-.84.07-1.27.06-.84-.07-1.23-.17c-.39-.1-.71-.28-.96-.54-.1-.09-.17-.21-.21-.34-.03-.13-.12-.23-.26-.3-.01-.18-.04-.37-.08-.59-.04-.22-.08-.44-.12-.68-.04-.24-.07-.47-.09-.7-.02-.23,0-.44.03-.63.04-.2.12-.39.24-.55s.17-.34.13-.53c.07-.01.1-.05.12-.11.01-.06.06-.09.16-.07.08-.24.16-.48.25-.69.09-.22.19-.43.28-.63.1-.2.2-.41.29-.62s.19-.44.28-.7c-.18-.18-.32-.37-.4-.58-.08-.21-.15-.42-.19-.63s-.07-.43-.1-.65c-.03-.22-.07-.45-.14-.68.13-.2.29-.37.48-.5s.39-.23.62-.32.46-.15.72-.2c.26-.05.53-.12.82-.18.52-.18.99-.31,1.4-.41s.81-.17,1.21-.23c.4-.06.81-.12,1.24-.17.43-.05.92-.14,1.47-.24.12.12.23.18.33.18.05-.12.11-.16.19-.11.07.05.1.01.09-.11.13.23.3.42.5.58.2.16.43.29.67.4Z"/>
          <path class="cls-2" d="M197.71,120.57c.09-.29.24-.53.44-.73.2-.2.42-.38.66-.52.24-.14.49-.26.75-.36s.51-.18.74-.24c.52-.23,1.08-.45,1.67-.66.59-.21,1.2-.4,1.82-.56s1.25-.27,1.91-.32,1.34.04,2.05.25c.04.14.1.27.18.39.08.12.16.24.24.37.08.12.16.24.23.36.06.12.1.24.12.36.13.12.23.25.31.4.08.14.09.33.04.56-.13.11-.26.21-.38.3-.12.09-.26.17-.4.24-.48-.12-.97-.16-1.47-.12-.5.04-.94.08-1.33.1-.12-.12-.26-.18-.42-.18s-.33.03-.51.08c-.18.05-.35.11-.53.16-.18.05-.34.07-.5.04-.13.11-.29.18-.48.21-.19.03-.39.06-.62.09-.01.07,0,.11.04.13s.05.07.02.13c.08.1.18.16.3.2.12.04.25.08.39.12s.26.09.36.15c.1.06.18.16.21.3.2,0,.36.05.51.14.14.1.26.21.35.35.09.14.16.28.21.44.05.16.07.3.07.42.04.11.08.16.14.14s.11.01.18.08c.04.18.14.36.29.54.16.18.28.38.37.6.03.34.05.64.06.91.01.26-.03.53-.14.81-.2.5-.47.95-.81,1.35s-.74.74-1.17,1.05c-.44.31-.9.57-1.4.78-.5.22-.98.4-1.45.55-.05-.01-.1-.01-.16,0-.05.01-.07-.02-.04-.1-.1.09-.22.16-.34.18-.12.03-.26.04-.4.03-.14,0-.29-.02-.44-.03-.15-.01-.29,0-.42.02-.09-.09-.17-.19-.24-.27s-.13-.2-.17-.34c-.07,0-.09-.03-.09-.1,0-.07-.02-.1-.07-.1.08-.14.11-.21.11-.23,0-.02-.03-.04-.06-.05-.03-.01-.06-.03-.09-.05-.03-.02-.03-.05-.02-.09.05-.11.07-.23.06-.38-.01-.14-.03-.29-.04-.44s0-.29.03-.43c.03-.14.13-.25.28-.33.44.05.86.04,1.26-.05.4-.09.77-.21,1.12-.38.35-.16.69-.34,1.01-.53.32-.19.64-.36.95-.51.04-.12.09-.22.17-.31.07-.08.15-.16.22-.22s.15-.14.22-.22c.06-.08.11-.18.14-.31.01-.09,0-.15-.07-.17s-.09-.07-.09-.15l-.21-.06c-.25-.15-.53-.27-.84-.38-.31-.1-.58-.21-.8-.34-.14.08-.28.1-.4.06s-.28-.08-.48-.12c-.44-.03-.87-.07-1.28-.14s-.81-.19-1.18-.37c-.03-.07-.06-.13-.1-.18-.04-.05-.11-.07-.21-.04-.08-.11-.16-.21-.23-.32s-.15-.21-.21-.34c.03-.16.05-.3.06-.42.01-.12-.03-.23-.12-.34.05-.18.09-.32.12-.43.03-.11.03-.25,0-.43Z"/>
          <path class="cls-2" d="M221.46,117.1c.55.07,1.04.18,1.47.35s.79.38,1.09.65c.21.34.41.71.6,1.1.19.39.33.81.43,1.23.1.43.14.87.14,1.31,0,.45-.1.9-.28,1.37-.38.49-.84.89-1.38,1.19-.54.31-1.12.55-1.75.74-.63.19-1.27.35-1.95.49-.67.14-1.33.27-1.96.41.01.31.02.64,0,.99,0,.35-.04.69-.1,1.04-.06.35-.15.68-.26,1.01-.12.33-.27.62-.47.9-.22,0-.45.03-.68.09-.23.06-.44.11-.63.15-.09-.05-.17-.1-.24-.15s-.17-.08-.3-.09c.03-.14,0-.27-.1-.42s-.18-.29-.27-.44c-.09-.15-.15-.29-.19-.43-.03-.14.03-.27.19-.39-.09-.09-.14-.22-.14-.37.09-.16.17-.39.24-.67.07-.28.13-.57.18-.85.05-.28.06-.53.03-.76-.03-.23-.16-.4-.39-.51.01-.03.04-.04.08-.04s.08,0,.12-.02c-.1-.08-.17-.2-.19-.35-.02-.15-.07-.28-.15-.39.03-.07.05-.13.06-.18.01-.05.06-.08.14-.06-.04-.25-.04-.48,0-.69.05-.22.11-.42.21-.62.09-.2.2-.39.33-.58.13-.19.25-.38.37-.57.09-.01.15,0,.17.04s.06.03.13-.02c.17-.14.29-.28.35-.43.07-.15.1-.32.1-.51.09-.28.2-.57.33-.87s.27-.56.43-.81c.16-.24.33-.46.52-.65s.39-.33.6-.43c.16-.14.35-.26.59-.38.23-.12.49-.2.76-.26s.55-.09.83-.1.54.02.77.09c.06.03.1.01.11-.04,0-.05.03-.08.07-.08ZM220.66,121.97c.33-.15.67-.27,1.05-.36s.68-.25.93-.5c-.16-.15-.38-.28-.68-.4s-.63-.19-.98-.21-.71,0-1.07.09c-.36.09-.67.25-.93.5-.08.25-.14.44-.2.58-.05.14-.12.32-.22.52.03.07.07.12.13.15s.1.08.13.15c.3-.16.6-.25.91-.27s.62-.11.93-.26Z"/>
          <path class="cls-2" d="M235.99,123.62c-.01.16,0,.32.04.47s.09.3.15.44.11.29.17.44.09.3.12.45c.03.19.03.4,0,.62-.03.22-.07.44-.14.65s-.15.4-.25.57c-.1.17-.23.3-.37.38-.18.24-.4.43-.67.57-.26.14-.5.3-.72.49-.14.09-.3.16-.48.2-.18.04-.36.08-.54.12-.14.08-.31.17-.51.25-.2.09-.4.17-.61.25-.21.07-.42.13-.63.16s-.39.04-.55.03c-.39.15-.77.25-1.14.3s-.8.02-1.3-.09c-.47.07-.9.05-1.3-.06s-.75-.28-1.06-.52c-.31-.24-.57-.52-.8-.86-.23-.33-.41-.68-.56-1.05-.1-.77-.08-1.48.08-2.11.16-.63.38-1.22.67-1.75.29-.54.63-1.03,1.01-1.49.38-.45.74-.9,1.09-1.33.08.03.14.02.19-.01.05-.03.09-.08.13-.14s.08-.12.13-.17c.05-.05.1-.09.17-.1.09-.2.22-.36.4-.46.18-.1.32-.25.42-.44.12-.03.21-.07.29-.12.08-.05.15-.12.23-.18.07-.07.15-.13.22-.19s.17-.1.27-.13v-.22c.23-.11.41-.24.52-.38s.24-.32.4-.52c.12-.01.21-.02.28-.02s.18-.01.32-.04c.1-.19.2-.33.28-.43.08-.09.21-.2.38-.31.16.08.33.14.52.16s.35.12.5.26c.01.14.05.24.12.32.06.08.14.14.21.2s.15.13.23.19c.07.07.12.16.15.28.05.01.09,0,.11-.02.02-.03.06-.03.11-.02.04.19.08.32.14.38.05.06.1.18.16.36-.07.14-.11.27-.15.42-.03.14-.11.25-.24.32-.01.09.01.15.08.15.07,0,.1.04.12.11.01.12,0,.21-.06.26.31.53.59,1.09.84,1.68.25.59.53,1.15.84,1.68ZM233.55,125.56c.05-.15.12-.27.21-.37s.13-.24.15-.43c-.07-.11-.1-.19-.12-.25s-.02-.16-.02-.3c-.29-.42-.53-.87-.74-1.36-.21-.48-.44-.93-.7-1.35-.03.05-.07.11-.14.16-.07.05-.14.04-.22-.04-.03.11-.07.19-.14.23-.07.05-.14.07-.22.06-.08,0-.16-.03-.24-.06-.08-.03-.16-.08-.23-.13-.38.31-.76.62-1.13.92-.38.3-.72.65-1.02,1.04-.05.03-.08.04-.1.03-.01,0-.05,0-.12.03-.1.26-.23.49-.38.7-.15.21-.3.42-.44.64-.14.22-.27.45-.37.69-.1.24-.16.53-.18.86.22.19.48.31.78.35s.61.05.93.02c.32-.03.63-.07.94-.13.31-.06.59-.09.85-.09.55-.14,1.02-.32,1.41-.54s.8-.45,1.23-.68Z"/>
          <path class="cls-2" d="M248.33,118.14c.03.3.07.56.14.77.06.22.14.43.22.63.06.19.13.38.19.56s.1.41.13.66c-.1.35-.18.68-.22.98-.05.3-.09.61-.15.94-.21.48-.41.9-.61,1.26-.2.37-.35.69-.47.96-.07.07-.12.15-.17.23-.05.09-.09.18-.15.27-.03.04-.06.1-.1.18s-.07.14-.1.16l-.39-.14-.08.51-.27.08-.2.24c-.25.45-.51.83-.78,1.13-.27.31-.58.58-.93.82-.35.24-.74.46-1.17.66-.44.2-.93.43-1.48.67-.22-.03-.41-.04-.58-.05s-.32-.02-.46-.03c-.25,0-.55-.02-.92-.06-.04-.11-.1-.18-.18-.22-.08-.04-.15-.06-.22-.06-.22-.11-.39-.27-.5-.48-.11-.21-.22-.44-.32-.68-.07-.15-.13-.29-.2-.42-.07-.13-.14-.26-.22-.4l.33-.1-.43-.49s-.06-.08-.1-.11c-.04-.03-.07-.07-.1-.11l-.02-.33c-.04-.94-.06-1.8-.05-2.58,0-.78.11-1.48.3-2.09v-.22c.04-.3.08-.55.12-.74.04-.2.07-.38.1-.56.04-.3.1-.58.18-.84.18-.04.32-.12.41-.23.09-.12.17-.22.23-.32.18-.01.31.01.37.08s.13.18.2.33c.06.12.15.26.24.41.1.15.24.27.44.35.03.11.06.22.11.34.05.12.09.24.15.38.1.23.2.47.28.72.08.25.13.49.15.72-.13.26-.23.56-.3.9-.07.34-.12.68-.14,1.03-.02.35-.01.68.02,1,.03.32.09.59.17.8l.12.27.33-.04c.39-.11.75-.23,1.07-.36.32-.13.62-.28.89-.46.27-.18.53-.38.78-.62.25-.24.51-.51.78-.83.27-.31.51-.67.71-1.07s.37-.82.51-1.25c.14-.43.24-.87.31-1.29.07-.43.12-.83.15-1.21.22-.08.33-.25.33-.49l-.04-.22c-.05-.08-.05-.18,0-.28.08-.26.26-.45.55-.59.21.14.39.28.56.45.16.16.32.33.46.49Z"/>
          <path class="cls-2" d="M251.65,127.62c-.14.54-.27.95-.38,1.23-.11.28-.28.57-.5.87-.17-.03-.29,0-.35.06-.06.07-.14.13-.21.18-.12.03-.2.03-.25,0s-.1-.06-.14-.09-.09-.07-.15-.1-.15-.05-.26-.05c-.03-.11-.06-.21-.09-.31-.03-.1-.12-.13-.26-.1.03-.11.03-.2.02-.28-.01-.07-.03-.14-.05-.2s-.04-.12-.05-.18c-.01-.06,0-.14.02-.23-.07,0-.12-.05-.16-.14-.04-.09-.08-.19-.14-.28.04-.24.08-.48.12-.69.04-.22.09-.42.15-.61s.11-.38.15-.57c.04-.19.02-.39-.06-.59.05.04.09.03.12-.03.03-.06.05-.14.06-.24.01-.1.02-.2.02-.31s0-.19-.02-.26c.13-.35.24-.72.32-1.09s.16-.74.23-1.11c.07-.37.15-.73.23-1.08.08-.35.18-.68.31-.98.14-.03.3-.01.48.05.18.06.28.14.32.23.34-.27.64-.6.9-.99.26-.39.53-.76.8-1.13.27-.37.58-.69.91-.98.33-.28.75-.45,1.26-.51.26.2.55.41.87.62s.58.49.79.82c.1.05.19.11.26.17.07.06.16.13.26.19v.24c.16.15.28.32.38.52.1.2.19.41.26.63.08.22.16.45.23.67s.17.44.27.64c-.03.07-.04.13-.04.17s0,.1.03.15c.02.05.04.11.05.16.01.05.01.13,0,.22-.04.6-.23,1.08-.56,1.45-.33.37-.73.67-1.2.91-.47.24-.97.44-1.51.6s-1.02.34-1.45.53c0,.05.02.08.07.08s.06.03.05.1c.31.2.56.37.74.49.18.12.35.22.52.31s.34.15.53.21.45.13.79.21.6.15.79.19c.19.05.36.09.52.12.16.03.32.06.48.08s.39.04.69.07c.12.12.22.27.3.44.08.17.14.34.17.51.03.17.03.33.02.49-.01.16-.06.28-.14.38.01.04.04.06.09.05.05,0,.09,0,.15.01-.08.05-.14.12-.2.2-.05.08-.1.16-.16.24-.05.08-.11.15-.18.21-.07.06-.16.1-.27.11-.4.16-.91.17-1.53.03s-1.39-.41-2.33-.78c-.47-.19-.85-.36-1.14-.5s-.55-.28-.76-.43c-.21-.14-.41-.3-.59-.46-.18-.16-.39-.36-.64-.59ZM254.45,120.63c-.14.22-.3.41-.48.59-.18.18-.35.36-.51.54-.16.18-.31.39-.44.61-.13.22-.22.49-.27.78.46-.05.93-.19,1.43-.4.5-.21.96-.41,1.41-.6-.05-.42-.19-.76-.42-1.02-.23-.26-.47-.43-.71-.51Z"/>
          <path class="cls-2" d="M271.91,129.51c-.37.12-.76.24-1.19.37s-.86.18-1.29.18c-.65,0-1.17-.17-1.54-.51-.07-.15-.12-.25-.18-.31-.04-.05-.08-.11-.11-.17-.03-.06-.06-.15-.07-.25-.16-.19-.28-.41-.37-.66-.09-.25-.15-.51-.19-.77-.03-.26-.04-.53-.02-.81.02-.27.06-.53.13-.77.03-.05.04-.11.05-.16,0-.05.02-.12.03-.18.05-.22.11-.43.17-.63.06-.2.14-.38.24-.53-.05-.12-.05-.26,0-.41.05-.15.11-.28.18-.41.18-.52.34-.95.46-1.31.12-.36.25-.72.38-1.07.22-.61.43-1.22.63-1.81.2-.6.37-1.24.53-1.94.1-.07.18-.12.23-.14.08-.03.14-.05.2-.06.23.12.51.24.82.36.31.12.57.17.78.17.1.07.17.12.2.15.03.03.05.06.08.09.14.18.27.36.37.54.1.18.14.43.1.72-.08.12-.14.18-.18.18-.07.27-.13.5-.21.69-.07.19-.15.38-.23.57-.09.2-.18.41-.25.61-.08.2-.14.45-.2.75-.05.07-.09.13-.11.18-.02.05-.04.12-.07.18-.03.07-.06.14-.09.21-.03.08-.08.14-.15.19-.04.35-.1.64-.19.86-.08.22-.17.44-.26.65-.16.39-.3.79-.42,1.18-.12.39-.2.84-.23,1.35.07-.03.13-.04.19-.04h.17c.12,0,.25.02.41.06.39-.22.82-.35,1.28-.39s.92-.07,1.38-.08h.55c.18,0,.35-.01.51-.04.12.07.19.11.22.11.03,0,.08.01.15.01.09,0,.17,0,.23.02.16.15.31.26.45.33s.29.13.45.18c.14.05.28.11.42.17.14.06.27.15.4.25l.14.88c.09.12.13.2.12.25,0,.11-.03.19-.08.24l.04.22c-.2.04-.33.09-.4.14-.07.05-.14.12-.21.18-.1.01-.18.02-.22.02h-.13c-.18,0-.4.03-.67.1-.35-.12-.72-.18-1.1-.18-.14,0-.29,0-.45.02-.16.01-.31.03-.47.04-.16.03-.32.05-.48.06-.16.01-.33.02-.5.02l-.45.12Z"/>
          <path class="cls-2" d="M282.39,114.68c.16.14.31.26.45.37.14.11.27.22.39.35.12.12.21.26.26.42.06.16.07.35.05.58-.1.12-.23.35-.37.68s-.32.81-.53,1.44c-.1.31-.21.74-.3,1.27-.1.54-.21,1.09-.35,1.67-.14.58-.3,1.12-.5,1.63-.2.51-.44.88-.74,1.11-.12-.04-.24-.07-.37-.1-.13-.03-.25-.07-.35-.12-.1-.05-.19-.13-.24-.24-.06-.1-.08-.25-.07-.44-.3-.18-.49-.39-.58-.64-.08-.25-.12-.52-.11-.79.01-.28.04-.56.09-.84.05-.28.05-.53,0-.76.13-.56.27-1.16.42-1.8.15-.64.28-1.27.4-1.86.12-.12.21-.27.28-.46.07-.18.13-.38.19-.6.05-.22.11-.43.17-.64.06-.21.14-.41.24-.6.06.07.18.1.33.09.16,0,.25-.05.29-.13.08.14.22.25.43.34s.38.12.51.09Z"/>
          <path class="cls-2" d="M286.89,128.31c.06.41.04.73-.07.96-.11.23-.27.41-.47.52s-.43.18-.69.19c-.26.01-.51,0-.74-.04-.13-.19-.25-.43-.35-.71-.1-.28-.2-.58-.29-.89-.09-.31-.17-.61-.24-.91-.07-.3-.13-.56-.19-.79.06-.16.11-.35.13-.56s.03-.42.04-.64c0-.22.01-.44.02-.66,0-.22.02-.44.05-.64.09-.57.23-1.11.4-1.63s.32-1.05.42-1.61c.03-.12.02-.24-.03-.35-.05-.11-.06-.21-.03-.31.01-.05.05-.09.12-.11.06-.02.1-.06.12-.13.04-.15.05-.27.03-.37-.02-.1,0-.21.07-.35.06-.11.15-.27.24-.48s.13-.43.11-.66c.12-.08.23-.18.33-.28s.21-.21.32-.3c.11-.09.23-.17.37-.23s.3-.1.5-.1c.1.14.17.28.21.45l.1.49c.03.16.08.32.15.46.06.14.18.25.33.34v.41c0,.16,0,.32.02.48.01.16.04.3.09.43.05.13.12.21.23.26-.23.65-.45,1.3-.66,1.94s-.37,1.28-.5,1.93c-.13.65-.21,1.29-.24,1.95s0,1.31.13,1.98Z"/>
          <path class="cls-2" d="M293.17,126.03c-.12.03-.2.1-.25.21-.05.12-.1.23-.15.36-.05.12-.09.24-.14.34-.05.1-.11.15-.21.15-.01.11-.05.2-.11.28s-.11.17-.17.26c-.05.09-.09.18-.12.28-.03.1-.01.22.04.36-.1.08-.17.2-.2.35-.03.15-.06.29-.09.43-.03.14-.09.25-.17.35-.08.09-.22.14-.43.12-.04.05-.05.09-.02.1.03.01.05.06.06.14-.14-.03-.25-.02-.32.03-.07.05-.16.08-.26.09-.25-.08-.45-.22-.62-.43-.16-.2-.31-.43-.43-.68-.12-.25-.23-.51-.33-.76-.1-.26-.19-.48-.28-.67.04-.15.05-.3.02-.44-.03-.14-.07-.26-.14-.36.64-1.41,1.34-2.92,2.09-4.52.76-1.6,1.47-3.19,2.15-4.75.3.12.6.26.89.42.29.16.56.34.8.54s.45.44.62.7c.17.26.28.56.33.89-.03.08-.06.11-.09.09-.03-.02-.06-.01-.09.03.05.07.08.12.09.14,0,.03,0,.05,0,.08,0,.03,0,.07,0,.11s.02.11.06.19c-.05-.01-.09,0-.11.02s-.06.03-.13,0c.05.15.07.27.05.37-.02.1-.05.18-.09.25-.04.08-.07.16-.1.25-.03.09-.02.2.02.34-.04,0-.07.01-.09.03s-.04.04-.05.06c-.01.02-.03.04-.05.06s-.05.02-.09.01c.04.3.05.6.04.9-.01.3-.02.6-.03.91,0,.31,0,.62,0,.96.01.33.06.68.14,1.03.47-.28.84-.65,1.12-1.1.28-.45.51-.95.68-1.51.18-.56.31-1.16.4-1.79.09-.64.19-1.29.29-1.96.12-.12.21-.27.27-.45.06-.18.12-.36.18-.56.05-.2.1-.39.16-.59.05-.2.12-.38.2-.54.2.03.36.09.5.19s.26.21.38.33c.12.12.24.22.37.33.13.1.29.17.49.19.16.23.3.45.43.67.13.22.21.45.25.69-.07.11-.11.23-.15.37-.03.14-.07.27-.11.41-.04.14-.09.26-.16.38-.07.12-.16.21-.27.3-.04.35-.09.68-.15.97-.06.29-.12.58-.18.87-.06.29-.11.58-.15.89-.04.31-.05.64-.04,1.01-.1.31-.22.65-.33,1s-.21.67-.27.96c-.21.18-.37.39-.49.63-.12.25-.24.49-.37.73-.05.05-.08.07-.1.04-.01-.03-.06-.05-.14-.06.01.05.01.1,0,.12s-.03.05-.05.07-.03.05-.04.09c0,.04,0,.1.03.16-.18.08-.35.2-.49.35s-.3.28-.46.41c-.16.12-.36.2-.59.25s-.52,0-.89-.14c-.53-.41-1.01-.88-1.42-1.41s-.75-1.16-1.01-1.9Z"/>
          <path class="cls-2" d="M310.1,124.23c-.01.07-.03.13-.04.17s-.03.09-.04.13-.02.09-.02.15v.24c-.39.72-.88,1.32-1.48,1.81-.59.49-1.25.92-1.96,1.29s-1.45.71-2.22,1.02c-.77.31-1.52.64-2.25.99-.31-.08-.55-.22-.71-.41s-.29-.41-.37-.66-.14-.53-.18-.84c-.03-.31-.06-.62-.09-.95.04-.15.09-.27.17-.38.07-.1.11-.25.11-.44.1-.35.21-.7.31-1.04.1-.34.17-.69.2-1.04.04-.11.11-.18.21-.22.06-.65.07-1.32,0-1.99-.06-.67-.17-1.3-.32-1.89.01-.14.03-.23.05-.3s.02-.1,0-.13c-.01-.11.02-.16.11-.16h.26c0-.2-.04-.41-.11-.61-.07-.2-.14-.43-.21-.69.09-.2.15-.4.18-.6.03-.2.08-.37.18-.52.7.23,1.38.51,2.02.84.65.33,1.28.56,1.91.71.47.35.95.7,1.45,1.05.5.35.94.73,1.35,1.14.4.41.74.89,1.02,1.42.27.53.43,1.16.47,1.9ZM305.46,125.36c.27-.11.54-.22.81-.35.27-.12.51-.26.74-.42.23-.16.43-.34.62-.54.18-.2.33-.45.45-.73-.08-.16-.18-.31-.31-.44-.13-.13-.26-.25-.39-.37s-.26-.23-.38-.36c-.12-.12-.22-.27-.3-.45-.17-.03-.32-.08-.45-.15s-.26-.15-.38-.22c-.12-.08-.25-.15-.39-.21-.14-.07-.3-.11-.48-.12-.29-.15-.54-.26-.77-.33-.23-.07-.4-.16-.52-.26-.09,0-.16.02-.22.06.13.52.23,1,.29,1.46.06.46.1.91.11,1.37,0,.45-.02.92-.07,1.4-.05.48-.12.99-.22,1.55.13-.01.25-.04.36-.09s.22-.1.33-.15c.11-.05.23-.1.35-.15.12-.05.27-.08.44-.09.04-.08.09-.15.17-.2.07-.05.14-.12.21-.18Z"/>
          <path class="cls-2" d="M321.75,118.14c.03.3.07.56.14.77.06.22.14.43.22.63.06.19.13.38.19.56s.1.41.13.66c-.1.35-.18.68-.22.98-.05.3-.09.61-.15.94-.21.48-.41.9-.61,1.26-.2.37-.35.69-.47.96-.07.07-.12.15-.17.23-.05.09-.09.18-.15.27-.03.04-.06.1-.1.18s-.07.14-.1.16l-.39-.14-.08.51-.27.08-.2.24c-.25.45-.51.83-.78,1.13-.27.31-.58.58-.93.82-.35.24-.74.46-1.17.66-.44.2-.93.43-1.48.67-.22-.03-.41-.04-.58-.05s-.32-.02-.46-.03c-.25,0-.55-.02-.92-.06-.04-.11-.1-.18-.18-.22-.08-.04-.15-.06-.22-.06-.22-.11-.39-.27-.5-.48-.11-.21-.22-.44-.32-.68-.07-.15-.13-.29-.2-.42-.07-.13-.14-.26-.22-.4l.33-.1-.43-.49s-.06-.08-.1-.11c-.04-.03-.07-.07-.1-.11l-.02-.33c-.04-.94-.06-1.8-.05-2.58,0-.78.11-1.48.3-2.09v-.22c.04-.3.08-.55.12-.74.04-.2.07-.38.1-.56.04-.3.1-.58.18-.84.18-.04.32-.12.41-.23.09-.12.17-.22.23-.32.18-.01.31.01.37.08s.13.18.2.33c.06.12.15.26.24.41.1.15.24.27.44.35.03.11.06.22.11.34.05.12.09.24.15.38.1.23.2.47.28.72.08.25.13.49.15.72-.13.26-.23.56-.3.9-.07.34-.12.68-.14,1.03-.02.35-.01.68.02,1,.03.32.09.59.17.8l.12.27.33-.04c.39-.11.75-.23,1.07-.36.32-.13.62-.28.89-.46.27-.18.53-.38.78-.62.25-.24.51-.51.78-.83.27-.31.51-.67.71-1.07s.37-.82.51-1.25c.14-.43.24-.87.31-1.29.07-.43.12-.83.15-1.21.22-.08.33-.25.33-.49l-.04-.22c-.05-.08-.05-.18,0-.28.08-.26.26-.45.55-.59.21.14.39.28.56.45.16.16.32.33.46.49Z"/>
          <path class="cls-2" d="M322.24,120.57c.09-.29.24-.53.44-.73.2-.2.42-.38.66-.52.24-.14.49-.26.75-.36s.51-.18.74-.24c.52-.23,1.08-.45,1.67-.66.59-.21,1.2-.4,1.82-.56s1.25-.27,1.91-.32,1.34.04,2.05.25c.04.14.1.27.18.39.08.12.16.24.24.37.08.12.16.24.23.36.06.12.1.24.12.36.13.12.23.25.31.4.08.14.09.33.04.56-.13.11-.26.21-.38.3-.12.09-.26.17-.4.24-.48-.12-.97-.16-1.47-.12-.5.04-.94.08-1.33.1-.12-.12-.26-.18-.42-.18s-.33.03-.51.08c-.18.05-.35.11-.53.16-.18.05-.34.07-.5.04-.13.11-.29.18-.48.21-.19.03-.39.06-.62.09-.01.07,0,.11.04.13s.05.07.02.13c.08.1.18.16.3.2.12.04.25.08.39.12s.26.09.36.15c.1.06.18.16.21.3.2,0,.36.05.51.14.14.1.26.21.35.35.09.14.16.28.21.44.05.16.07.3.07.42.04.11.08.16.14.14s.11.01.18.08c.04.18.14.36.29.54.16.18.28.38.37.6.03.34.05.64.06.91.01.26-.03.53-.14.81-.2.5-.47.95-.81,1.35s-.74.74-1.17,1.05c-.44.31-.9.57-1.4.78-.5.22-.98.4-1.45.55-.05-.01-.1-.01-.16,0-.05.01-.07-.02-.04-.1-.1.09-.22.16-.34.18-.12.03-.26.04-.4.03-.14,0-.29-.02-.44-.03-.15-.01-.29,0-.42.02-.09-.09-.17-.19-.24-.27s-.13-.2-.17-.34c-.07,0-.09-.03-.09-.1,0-.07-.02-.1-.07-.1.08-.14.11-.21.11-.23,0-.02-.03-.04-.06-.05-.03-.01-.06-.03-.09-.05-.03-.02-.03-.05-.02-.09.05-.11.07-.23.06-.38-.01-.14-.03-.29-.04-.44s0-.29.03-.43c.03-.14.13-.25.28-.33.44.05.86.04,1.26-.05.4-.09.77-.21,1.12-.38.35-.16.69-.34,1.01-.53.32-.19.64-.36.95-.51.04-.12.09-.22.17-.31.07-.08.15-.16.22-.22s.15-.14.22-.22c.06-.08.11-.18.14-.31.01-.09,0-.15-.07-.17s-.09-.07-.09-.15l-.21-.06c-.25-.15-.53-.27-.84-.38-.31-.1-.58-.21-.8-.34-.14.08-.28.1-.4.06s-.28-.08-.48-.12c-.44-.03-.87-.07-1.28-.14s-.81-.19-1.18-.37c-.03-.07-.06-.13-.1-.18-.04-.05-.11-.07-.21-.04-.08-.11-.16-.21-.23-.32s-.15-.21-.21-.34c.03-.16.05-.3.06-.42.01-.12-.03-.23-.12-.34.05-.18.09-.32.12-.43.03-.11.03-.25,0-.43Z"/>
          <path class="cls-2" d="M342.34,119.93c-.33,0-.68.02-1.06.07-.38.05-.75.1-1.11.15-.26.04-.51.08-.75.1-.24.03-.46.05-.65.06-.09.3-.18.56-.27.79-.09.23-.19.46-.29.67-.1.23-.2.47-.28.7-.08.24-.17.49-.24.76-.13.22-.24.42-.32.6-.08.18-.15.39-.21.62-.16.2-.27.42-.35.64s-.14.42-.18.58l-.08.25c-.08.08-.12.15-.14.19-.01.05-.05.09-.1.13-.01.15-.06.3-.14.45-.03.07-.05.13-.06.19s-.02.1-.02.13c0,.14-.03.22-.1.26.01.07.01.14,0,.21-.01.07-.03.15-.04.21-.04.16-.05.29-.04.39.04.05.07.1.11.14s.06.1.07.16c.08.05.14.09.18.1.05.04.13.09.23.14l.18.2c.06.39,0,.71-.18.94-.2.26-.53.39-1,.39h-.23c-.06-.07-.1-.12-.12-.16-.1-.04-.19-.07-.25-.1-.07-.03-.12-.08-.18-.16-.17-.08-.31-.15-.41-.2l-.18-.1v-.25c-.09-.12-.16-.26-.21-.41s-.08-.3-.11-.45c-.03-.12-.06-.24-.09-.35-.03-.11-.08-.2-.13-.28-.03-.79.05-1.45.21-2s.35-1.07.53-1.57c.1-.27.21-.55.31-.83.1-.28.2-.57.27-.87l.18-.2c.09-.22.17-.4.23-.54.06-.14.12-.29.19-.44.04-.1.07-.19.11-.28.03-.09.06-.17.09-.23-.08,0-.15,0-.21.01-.07,0-.13.02-.2.03-.08.01-.15.02-.22.03-.07,0-.13.01-.2.01-.09,0-.16,0-.2-.02-.14.07-.3.1-.47.1h-.2s-.08,0-.11-.01c-.03,0-.06-.01-.09-.01-.13,0-.23.02-.31.06h-.65s-.06,0-.1.01c-.04,0-.07.01-.1.01-.09,0-.19-.01-.29-.03-.1-.02-.22-.06-.33-.13-.16-.22-.26-.33-.31-.35l-.18-.25c-.01-.08-.03-.16-.06-.23-.03-.07-.05-.16-.08-.25-.05-.14-.1-.28-.15-.44-.05-.16-.07-.34-.07-.56.01-.11.04-.19.08-.25.04-.05.07-.1.1-.14l.06-.31.25.02h.55c.42,0,.84-.02,1.27-.05s.87-.07,1.33-.11c.26-.03.52-.05.79-.08s.54-.05.83-.08c.05-.12.1-.24.16-.35l.2-.1c.23-.01.4.02.5.09.1.08.18.15.24.21.29-.03.58-.06.87-.09.29-.03.59-.08.89-.13.44-.07.89-.13,1.34-.18.45-.05.88-.08,1.3-.08.18,0,.36,0,.53.02s.33.03.47.06l.2.14c.04.08.09.16.17.22.07.07.15.14.23.2.16.15.31.33.47.53.16.2.21.5.18.9-.1.16-.18.26-.23.29l-.18.24-.2-.02c-.08,0-.15.01-.22.03s-.13.04-.2.07c-.05.03-.1.05-.16.07-.05.02-.11.04-.18.05-.12,0-.21,0-.28-.01s-.15-.01-.22-.01Z"/>
          <path class="cls-2" d="M343.97,127.62c-.14.54-.27.95-.38,1.23-.11.28-.28.57-.5.87-.17-.03-.29,0-.35.06-.06.07-.14.13-.21.18-.12.03-.2.03-.25,0s-.1-.06-.14-.09-.09-.07-.15-.1-.15-.05-.26-.05c-.03-.11-.06-.21-.09-.31-.03-.1-.12-.13-.26-.1.03-.11.03-.2.02-.28-.01-.07-.03-.14-.05-.2s-.04-.12-.05-.18c-.01-.06,0-.14.02-.23-.07,0-.12-.05-.16-.14-.04-.09-.08-.19-.14-.28.04-.24.08-.48.12-.69.04-.22.09-.42.15-.61s.11-.38.15-.57c.04-.19.02-.39-.06-.59.05.04.09.03.12-.03.03-.06.05-.14.06-.24.01-.1.02-.2.02-.31s0-.19-.02-.26c.13-.35.24-.72.32-1.09s.16-.74.23-1.11c.07-.37.15-.73.23-1.08.08-.35.18-.68.31-.98.14-.03.3-.01.48.05.18.06.28.14.32.23.34-.27.64-.6.9-.99.26-.39.53-.76.8-1.13.27-.37.58-.69.91-.98.33-.28.75-.45,1.26-.51.26.2.55.41.87.62s.58.49.79.82c.1.05.19.11.26.17.07.06.16.13.26.19v.24c.16.15.28.32.38.52.1.2.19.41.26.63.08.22.16.45.23.67s.17.44.27.64c-.03.07-.04.13-.04.17s0,.1.03.15c.02.05.04.11.05.16.01.05.01.13,0,.22-.04.6-.23,1.08-.56,1.45-.33.37-.73.67-1.2.91-.47.24-.97.44-1.51.6s-1.02.34-1.45.53c0,.05.02.08.07.08s.06.03.05.1c.31.2.56.37.74.49.18.12.35.22.52.31s.34.15.53.21.45.13.79.21.6.15.79.19c.19.05.36.09.52.12.16.03.32.06.48.08s.39.04.69.07c.12.12.22.27.3.44.08.17.14.34.17.51.03.17.03.33.02.49-.01.16-.06.28-.14.38.01.04.04.06.09.05.05,0,.09,0,.15.01-.08.05-.14.12-.2.2-.05.08-.1.16-.16.24-.05.08-.11.15-.18.21-.07.06-.16.1-.27.11-.4.16-.91.17-1.53.03s-1.39-.41-2.33-.78c-.47-.19-.85-.36-1.14-.5s-.55-.28-.76-.43c-.21-.14-.41-.3-.59-.46-.18-.16-.39-.36-.64-.59ZM346.76,120.63c-.14.22-.3.41-.48.59-.18.18-.35.36-.51.54-.16.18-.31.39-.44.61-.13.22-.22.49-.27.78.46-.05.93-.19,1.43-.4.5-.21.96-.41,1.41-.6-.05-.42-.19-.76-.42-1.02-.23-.26-.47-.43-.71-.51Z"/>
          <path class="cls-2" d="M355.8,128.31c.06.41.04.73-.07.96-.11.23-.27.41-.47.52s-.43.18-.69.19c-.26.01-.51,0-.74-.04-.13-.19-.25-.43-.35-.71-.1-.28-.2-.58-.29-.89-.09-.31-.17-.61-.24-.91-.07-.3-.13-.56-.19-.79.06-.16.11-.35.13-.56s.03-.42.04-.64c0-.22.01-.44.02-.66,0-.22.02-.44.05-.64.09-.57.23-1.11.4-1.63s.32-1.05.42-1.61c.03-.12.02-.24-.03-.35-.05-.11-.06-.21-.03-.31.01-.05.05-.09.12-.11.06-.02.1-.06.12-.13.04-.15.05-.27.03-.37-.02-.1,0-.21.07-.35.06-.11.15-.27.24-.48s.13-.43.11-.66c.12-.08.23-.18.33-.28s.21-.21.32-.3c.11-.09.23-.17.37-.23s.3-.1.5-.1c.1.14.17.28.21.45l.1.49c.03.16.08.32.15.46.06.14.18.25.33.34v.41c0,.16,0,.32.02.48.01.16.04.3.09.43.05.13.12.21.23.26-.23.65-.45,1.3-.66,1.94s-.37,1.28-.5,1.93c-.13.65-.21,1.29-.24,1.95s0,1.31.13,1.98Z"/>
          <path class="cls-2" d="M368.97,118.26c.01.1.02.17,0,.21,0,.05-.01.09-.02.13,0,.04,0,.08,0,.13s.01.12.04.21c-.27.46-.59.78-.95.95s-.75.29-1.16.37c-.42.08-.84.15-1.28.24-.44.08-.87.26-1.3.53-.17-.07-.32-.07-.46,0-.14.07-.34.09-.6.06-.08.08-.18.14-.29.17-.12.03-.23.07-.35.11.05.12.07.25.07.38,0,.13,0,.23.05.32.46.04.96.03,1.52-.02.55-.05,1.1-.09,1.63-.1.01.07,0,.11-.02.13-.03.02-.03.06-.02.11.09.07.18.15.27.25.09.1.18.2.27.3.09.1.19.17.28.23.1.06.21.09.34.07.05.11.09.23.11.36s0,.26-.05.4c-.21.15-.42.3-.63.46s-.43.3-.65.42-.47.22-.72.3c-.25.07-.54.1-.85.09h-.15s-.08-.02-.13-.06c-.1.07-.25.09-.44.06-.19-.03-.34,0-.44.06-.14-.07-.32-.1-.52-.09s-.38-.02-.54-.07c-.21.28-.4.59-.57.92-.17.33-.32.67-.45,1.04.44.07.81.09,1.1.08.29-.01.57-.04.83-.07s.53-.07.8-.1c.27-.03.62-.04,1.04-.03.26-.15.57-.25.93-.3.36-.05.69-.13.99-.23.1.04.2.11.27.21.08.1.15.2.22.29s.15.17.23.23.18.09.29.08c.05.05.09.12.11.19.02.08.04.15.05.21.01.07.04.13.07.17.03.05.09.06.17.05-.2.45-.42.79-.67,1.03-.25.24-.54.42-.87.54-.33.12-.69.22-1.09.29s-.84.15-1.32.24c-.12.03-.21.02-.29-.01-.08-.03-.17-.05-.27-.05-.3.07-.66.13-1.08.18s-.84.07-1.27.06-.84-.07-1.23-.17c-.39-.1-.71-.28-.96-.54-.1-.09-.17-.21-.21-.34-.03-.13-.12-.23-.26-.3-.01-.18-.04-.37-.08-.59-.04-.22-.08-.44-.12-.68-.04-.24-.07-.47-.09-.7-.02-.23,0-.44.03-.63.04-.2.12-.39.24-.55s.17-.34.13-.53c.07-.01.1-.05.12-.11.01-.06.06-.09.16-.07.08-.24.16-.48.25-.69.09-.22.19-.43.28-.63.1-.2.2-.41.29-.62s.19-.44.28-.7c-.18-.18-.32-.37-.4-.58-.08-.21-.15-.42-.19-.63s-.07-.43-.1-.65c-.03-.22-.07-.45-.14-.68.13-.2.29-.37.48-.5s.39-.23.62-.32.46-.15.72-.2c.26-.05.53-.12.82-.18.52-.18.99-.31,1.4-.41s.81-.17,1.21-.23c.4-.06.81-.12,1.24-.17.43-.05.92-.14,1.47-.24.12.12.23.18.33.18.05-.12.11-.16.19-.11.07.05.1.01.09-.11.13.23.3.42.5.58.2.16.43.29.67.4Z"/>
        </g>
        <path class="cls-3" d="M61.49,98.39l-3.63-17.1h-20.85l-3.32,17.1h-17.38L35.5,16.04h23.42l20.1,82.35h-17.53ZM39.27,69.94h16.17l-8.31-39.41-7.86,39.41Z"/>
        <path class="cls-3" d="M126.34,16.04h15.87v82.35h-16.32l-20.4-54.55v54.55h-16.02V16.04h16.77l20.1,53.77V16.04Z"/>
        <path class="cls-3" d="M243.06,86.91h25.38v11.48h-42.76V16.04h17.38v70.86Z"/>
        <path class="cls-3" d="M279.06,16.04h17.38v82.35h-17.38V16.04Z"/>
        <path class="cls-3" d="M347.24,56.37l21.76,42.02h-19.34l-11.94-28.84-12.09,28.84h-18.58l21-42.02-19.95-40.33h19.49l10.12,27.14,10.12-27.14h18.74l-19.34,40.33Z"/>
        <path class="cls-2" d="M158.18,75.91c7.76.82,13.96-7.28,15.43-9.31,0,0,2.34-3.4,2.48-4.3s.27-1.31-.25-2.2c-.52-.89-1.62-1.58-3.55-.8-1.93.78-5.79.6-7.52-.94-1.73-1.53-2.8-4.82-2.15-7.26.65-2.45,2.06-4.98,4.52-4.75,2.46.23,3.87.92,5.15,2.61,1.28,1.69,3.12,5.1,5.63,3.23s-.23-4.51-.57-4.95c-.33-.44-2.55-2.45-1.98-5.95s4.29-4.2,6.09-4.13c1.8.06,5.83,1.53,6.23,4.38.4,2.85-.03,3.82-1.06,6.47-.37,1.19.44,2.46,1.61,2.92,1.17.46,2.69-.24,3.03-.95s1.65-4.65,3.84-6.17c2.2-1.52,5.31-2.09,7.4-.64,2.09,1.45,4.68,5.49,1.44,9.83-1.19,1.9-4.1,1.98-5.83,1.78-1.05-.12-3.75-.78-4.4,1.7-.38,1.44.23,2.17,1.04,2.74.81.56,2,1.44,4.16,1.99s6.31,1.76,5.97,4.87c-.19,1.75-1.36,5.38-5.55,5.99-4.19.61-7.22-2.61-7.84-4.57-.61-1.96-.84-2.45-1.68-3.45-.85-1-2.58-.86-3.2-.24-.62.62-.85.87-1.71,2.8-.85,1.93-2.65,5.48-2.65,5.48-2.3,4.83-9.07,14.16-16.54,16.32-2,.58-4.06.8-6.14.77,2.48,5.44,7.95,9.24,14.32,9.24h20.05c8.69,0,15.74-7.05,15.74-15.74V31.79c0-8.69-7.05-15.74-15.74-15.74h-20.05c-8.69,0-15.74,7.05-15.74,15.74v44.12h0Z"/>
      </g>
    </g>
  </g>
</svg>