<?xml version="1.0" encoding="UTF-8"?>
<svg id="Calque_1" xmlns="http://www.w3.org/2000/svg" xmlns:xlink="http://www.w3.org/1999/xlink" version="1.1" viewBox="0 0 82 25.2">
  <!-- Generator: Adobe Illustrator 30.4.0, SVG Export Plug-In . SVG Version: 2.1.4 Build 226)  -->
  <defs>
    <style>
      .st0 {
        fill: none;
      }

      .st1 {
        fill: #fff;
      }

      .st2 {
        fill: #0b2a47;
      }

      .st3 {
        fill: #e3e5e6;
      }

      .st4 {
        clip-path: url(#clippath);
      }
    </style>
    <clipPath id="clippath">
      <rect class="st0" width="82" height="25.2"/>
    </clipPath>
  </defs>
  <polygon class="st3" points="0 0 0 25.2 56.3 25.2 82 25.2 82 0 0 0"/>
  <polygon class="st2" points="0 0 0 25.2 56.3 25.2 82 25.2 82 0 0 0"/>
  <g class="st4">
    <path class="st1" d="M1.8,1.8h73.5s-4,9.3-13.4,10.1c1,1.7-.7,11.5-6.2,11.5H1.8"/>
    <path class="st1" d="M75.8,1.8h4.4v21.6h-22.2c10.4-5.6,17.8-21.6,17.8-21.6"/>
    <path class="st2" d="M12.2,4.3h3.3l-.6,2.8h5.8l-1.6,2.7h-4.9l-1.2,5s-.7,1.8.6,2.3c2.5.8,4.7-1,4.7-1l.6,2.6s-2.3,1.8-5.4,1.5c-2.4,0-4.3-1.6-4.1-3.9.2-1.8,1.5-6.6,1.5-6.6h-5l1.5-2.7h4.1"/>
    <path class="st2" d="M22.4,14.5s-.7,2.6,2.3,2.9c2.7.2,3.1-1.7,3.1-1.7h3.4s-.9,4.8-7.1,4.5c-3.1,0-5.8-2.4-5-6.8,0,0,.5-6.9,7.7-6.7,3.4.2,4.9,2,5.1,4.1.2,1.6-.4,3.6-.4,3.6"/>
    <path class="st2" d="M31.9,15.7h3.3s-.6,2.1,2.2,2c2.5-.1,1.8-1.7,1.8-1.7-.2-1.1-4.2-1.4-5.6-4.1-1.1-3.7,3.1-4.9,3.3-4.9,3.9-.9,6.1.6,6.1.6,1.8.9,1.5,3.1,1.5,3.1h-3.3s.2-1.5-2-1.5c-2.4,0-1.9,1.4-1.9,1.4.3,1.1,3.9,1.8,4.8,3,2.6,3.4-.6,6.5-3.8,6.6-5,.2-5.2-1-5.6-1.1-1.5-1.3-.7-3.5-.7-3.5"/>
    <path class="st2" d="M52.3,11.8s-4.8-.5-6.8,1.1c-2.5,2-2,4.6-2,4.6.7,2.8,3.7,2.7,3.7,2.7,2.5,0,3.8-1.2,3.8-1.2v.9h3.2s-.2-1.3,0-1.8c0,0,1.6-7.2,1.6-7.2,0,0,.9-2.3-1.7-3.5-1.9-1-4.1-.6-4.1-.6,0,0-3.8.1-4.5,3.8h3.5s.3-1.5,2.2-1.4c2.5,0,1.1,2.6,1.1,2.6"/>
    <path class="st2" d="M58.5,9.2v-1.6h.4c.2,0,.3,0,.3,0,.1,0,.2,0,.3,0,.1,0,.2.2.2.4s0,.2-.1.3c0,0-.2,0-.3.1,0,0,.2,0,.2,0,0,0,.1.2.1.4h0c0,.2,0,.2,0,.2,0,0,0,0,0,0h0s-.4,0-.4,0c0,0,0-.1,0-.2,0,0,0-.2,0-.2,0,0,0,0-.1-.1,0,0,0,0-.1,0h0s0,0,0,0v.6M59.2,7.9c0,0-.1,0-.2,0h0v.5h.2c0,0,.2,0,.2,0,0,0,0-.1,0-.2s0-.1-.1-.2M60.1,9.5c-.3.3-.6.4-1,.4s-.7-.1-1-.4c-.3-.3-.4-.6-.4-1s.2-.8.5-1c.3-.3.6-.4,1-.4s.7.1,1,.4c.3.3.4.6.4,1s-.1.8-.4,1M58.3,7.6c-.2.2-.3.5-.3.8s.1.6.3.8c.2.2.5.3.8.3s.6-.1.8-.4c.2-.2.4-.5.4-.8s-.1-.6-.3-.8c-.2-.2-.5-.4-.8-.4s-.6.1-.8.4"/>
    <path class="st1" d="M22.9,11.7h5.7s.8-2.5-2.3-2.4c-2.7,0-3.4,2.4-3.4,2.4"/>
    <path class="st1" d="M51.8,14.2s-5-.6-4.9,2.6c.8,2,4.9.4,4.9-2.6"/>
  </g>
</svg>