<?xml version="1.0" encoding="UTF-8"?>
<svg id="Calque_1" xmlns="http://www.w3.org/2000/svg" xmlns:xlink="http://www.w3.org/1999/xlink" version="1.1" viewBox="0 0 104.6 22">
  <!-- Generator: Adobe Illustrator 30.4.0, SVG Export Plug-In . SVG Version: 2.1.4 Build 226)  -->
  <defs>
    <style>
      .st0 {
        fill: none;
      }

      .st1 {
        clip-path: url(#clippath-1);
      }

      .st2 {
        clip-path: url(#clippath-2);
      }

      .st3 {
        fill: #0b2a47;
      }

      .st4 {
        clip-path: url(#clippath);
      }
    </style>
    <clipPath id="clippath">
      <rect class="st0" width="104.6" height="22"/>
    </clipPath>
    <clipPath id="clippath-1">
      <rect class="st0" width="104.6" height="22"/>
    </clipPath>
    <clipPath id="clippath-2">
      <rect class="st0" width="104.6" height="22"/>
    </clipPath>
  </defs>
  <g class="st4">
    <path class="st3" d="M2.8,0h0c1.7,1.1,2.3,2.9,1.8,5L0,21.7h8.1l4.3-15.8,3.6,9.3c1.8,4.1,3.7,6.5,10.3,6.5h4.1S36.2,0,36.2,0h-8.1l-4.3,16-3.3-8.6C19.1,3.2,16.8,0,10,0H2.8Z"/>
    <path class="st3" d="M93,11.3c-2.8,0-4.2,1.8-4.8,4-.3,1-.3,2,0,2.8.4.9,1.1,1.4,2.6,1.4,2.8,0,4.2-1.9,4.8-4.1.6-2.2.2-4-2.7-4M90.3,22c-7.3,0-11-2.4-10-6.7.5-2,2-3.7,4.2-4.8,2.3-1.2,5.4-1.8,9.1-1.8,7.2,0,10.9,2.4,9.9,6.6-1,4.3-5.8,6.7-13.2,6.7"/>
  </g>
  <g class="st1">
    <path class="st3" d="M59.3,12.2h4.1l.9-3.1h-4.1l1.1-4.2h-7.4s-1.1,4.2-1.1,4.2h-3.4l-.9,3.1h3.4l-1.1,4.2c-.9,3.4.4,5.3,5.9,5.3s2.8,0,4.2,0l.8-3h-1.3c-1.4,0-1.7-.1-2.1-.5-.5-.5-.1-1.6,0-2.1l1-3.9Z"/>
  </g>
  <polygon class="st3" points="47.3 3.1 39.6 3.1 38.6 6.8 46.3 6.8 47.3 3.1"/>
  <g class="st2">
    <path class="st3" d="M45.7,9.1h-7.8l-2,7.3c-.9,3.4.4,5.3,5.9,5.3s2.8,0,4.2,0l.8-3h-1.3c-1.1,0-1.4-.1-1.7-.5-.5-.5-.1-1.6,0-2.1l1.9-7Z"/>
    <path class="st3" d="M75.7,12.2h4.1l.8-3.1h-4.1l1.1-4.2h-7.4s-1.1,4.2-1.1,4.2h-3.4l-.8,3.1h3.4l-1.1,4.2c-.9,3.4.4,5.3,5.9,5.3s2.8,0,4.2,0l.8-3h-1.3c-1.4,0-1.7-.1-2.1-.5-.5-.5-.1-1.6,0-2.1l1-3.9Z"/>
  </g>
</svg>