<?xml version="1.0" encoding="UTF-8"?>
<svg id="Calque_1" xmlns="http://www.w3.org/2000/svg" xmlns:xlink="http://www.w3.org/1999/xlink" version="1.1" viewBox="0 0 44.5 44.5">
  <!-- Generator: Adobe Illustrator 30.4.0, SVG Export Plug-In . SVG Version: 2.1.4 Build 226)  -->
  <defs>
    <style>
      .st0 {
        fill: none;
      }

      .st1 {
        clip-path: url(#clippath-1);
      }

      .st2 {
        clip-path: url(#clippath-2);
      }

      .st3 {
        fill: #0b2a47;
      }

      .st4 {
        clip-path: url(#clippath);
      }
    </style>
    <clipPath id="clippath">
      <rect class="st0" width="44.5" height="44.5"/>
    </clipPath>
    <clipPath id="clippath-1">
      <rect class="st0" width="44.5" height="44.5"/>
    </clipPath>
    <clipPath id="clippath-2">
      <rect class="st0" width="44.5" height="44.5"/>
    </clipPath>
  </defs>
  <g class="st4">
    <path class="st3" d="M29.1,26.4c0,.2,0,.4,0,.6,0-.2,0-.4,0-.6M22.2,13.4v6.2h0v-6.2ZM29.1,26.4c0,.2,0,.4,0,.6,0-.2,0-.4,0-.6M22.2,13.4v6.2h0v-6.2ZM40.1,34.6c0-.2-.2-.3-.4-.4-.2,0-.4,0-.7.2h-.3c0,.1.5,1.3.5,1.3l.4-.2c.2-.1.4-.3.5-.4,0-.2,0-.3,0-.5M29.1,26.4c0,.2,0,.4,0,.6,0-.2,0-.4,0-.6M22.2,13.4v6.2h0v-6.2ZM29.1,26.4c0,.2,0,.4,0,.6,0-.2,0-.4,0-.6M22.2,13.4v6.2h0v-6.2ZM29.1,26.4c0,.2,0,.4,0,.6,0-.2,0-.4,0-.6M22.2,13.4v6.2h0v-6.2ZM29.1,26.4c0,.2,0,.4,0,.6,0-.2,0-.4,0-.6M22.2,13.4v6.2h0v-6.2ZM29.1,26.4c0,.2,0,.4,0,.6,0-.2,0-.4,0-.6M22.2,13.4v6.2h0v-6.2ZM29.1,26.4c0,.2,0,.4,0,.6,0-.2,0-.4,0-.6M22.2,13.4v6.2h0v-6.2ZM29.1,26.4c0,.2,0,.4,0,.6,0-.2,0-.4,0-.6M22.2,13.4v6.2h0v-6.2ZM29.1,26.4c0,.2,0,.4,0,.6,0-.2,0-.4,0-.6M22.2,13.4v6.2h0v-6.2ZM29.1,26.4c0,.2,0,.4,0,.6,0-.2,0-.4,0-.6M22.2,13.4v6.2h0v-6.2ZM29.1,26.4c0,.2,0,.4,0,.6,0-.2,0-.4,0-.6M22.2,13.4v6.2h0v-6.2ZM29.1,26.4c0,.2,0,.4,0,.6,0-.2,0-.4,0-.6M22.2,13.4v6.2h0v-6.2ZM29.1,26.4c0,.2,0,.4,0,.6,0-.2,0-.4,0-.6M22.2,13.4v6.2h0v-6.2ZM29.1,26.4c0,.2,0,.4,0,.6,0-.2,0-.4,0-.6M22.2,13.4v6.2h0v-6.2Z"/>
    <path class="st3" d="M41.5,37.8l-.9-1.1c-.1-.2-.3-.3-.4-.3-.1,0-.3,0-.5.1h-.2c0,0,.7,1.9.7,1.9l-1.1.5-1.9-4.6,1.7-.8c.6-.3,1-.4,1.4-.3.4,0,.6.3.8.7.1.3.1.6,0,.8,0,.3-.2.5-.5.7.3,0,.5.1.8.5h0s1.1,1.3,1.1,1.3l-1.2.6ZM37.2,39.2c-.3.6-.7,1-1.4,1.2-.7.2-1.3.2-1.8,0-.5-.3-.9-.9-1.1-1.7-.2-.8-.2-1.5,0-2.1.3-.6.7-1,1.4-1.2.7-.2,1.3-.2,1.8,0,.5.3.9.9,1.1,1.7.2.8.2,1.5,0,2.1M31.6,39.4c-.2.4-.7.6-1.2.7h-.5c0,.1.3,1.9.3,1.9l-1.2.3-1-5,1.6-.4c.6-.1,1.1-.1,1.5,0,.4.2.6.6.7,1.1.1.5,0,1-.2,1.3M27.2,42.2c-.3.3-.8.5-1.4.6-.2,0-.5,0-.7,0-.2,0-.5,0-.7,0v-1.1c.2,0,.5.1.7.2.2,0,.4,0,.6,0,.2,0,.4,0,.6-.2.1-.1.2-.3.2-.4,0-.2-.3-.4-.7-.5-.1,0-.2,0-.3,0-.5-.1-.8-.3-1-.5-.2-.2-.3-.5-.4-.9,0-.5,0-.9.4-1.2.3-.3.8-.5,1.4-.5.2,0,.4,0,.7,0,.2,0,.4,0,.6,0v1.1c-.2,0-.4-.1-.6-.1-.2,0-.3,0-.5,0-.2,0-.4,0-.6.2-.1,0-.2.2-.2.4,0,.1,0,.2.1.3,0,0,.2.1.3.2,0,0,.1,0,.2,0,.5.1.9.3,1.1.4.2.1.3.3.4.4,0,.2.1.4.2.6,0,.6,0,1-.4,1.3M22.9,42.7c-.2,0-.5.1-.8.1-.3,0-.5,0-.8,0-.9,0-1.6-.3-2-.7-.5-.5-.7-1.1-.6-2,0-.9.3-1.5.8-2,.5-.5,1.2-.7,2-.6.3,0,.5,0,.8,0,.3,0,.5.1.7.2v1.1c-.3-.1-.5-.2-.7-.3-.2,0-.4-.1-.6-.1-.5,0-.9.1-1.2.4-.3.3-.5.7-.5,1.2,0,.5.1.9.4,1.2.2.3.6.5,1,.5,0,0,.2,0,.3,0,0,0,.2,0,.2,0v-1.1s-.7,0-.7,0v-1s1.9,0,1.9,0v2.8ZM17.2,42.5l-1.5-.3-.8-3.4c0-.2,0-.3,0-.5,0-.2,0-.4,0-.6,0,.3,0,.6,0,.8,0,.3,0,.5,0,.7l-.5,2.6-1.1-.2.9-5,1.5.3.8,3.3c0,.1,0,.3,0,.5,0,.2,0,.2,0,.5,0-.3,0-.3,0-.5,0-.2,0-.4,0-.6l.5-2.8,1.1.2-.9,5ZM11.7,41.2l-1.2-.4,1.3-4.9,1.2.4-1.3,4.9ZM9.3,40.5l-2.9-1.2,1.6-4.8,1.2.5-1.3,3.8,1.7.7-.3.9ZM4.1,38.3l-.5-2.8-.9,2.2-1.1-.6,1.9-4.6,1.1.6-.8,2,2.1-1.4,1.3.6-2.4,1.4.7,3.3-1.4-.7ZM22.2,2.2c10.6,6.2,17.1,15.5,19.6,27.8-13,7.5-26.3,7.3-39.2,0C5.1,17.7,11.8,8.2,22.2,2.2M22.3,0C8.1,7.7-.2,21,0,37.9c13.1,8.7,31,8.9,44.5,0C45,21.5,36.5,7.5,22.3,0"/>
  </g>
  <polygon class="st3" points="22.2 19.6 22.2 19.6 22.2 17.5 22.2 13.4 22.2 19.6"/>
  <g class="st1">
    <path class="st3" d="M29.2,27c0-.2,0-.4,0-.6,0,.2,0,.4,0,.6"/>
    <path class="st3" d="M30.6,38.9c0,.1-.3.2-.5.3h-.3c0,0-.3-1.4-.3-1.4h.3c.2-.1.4-.1.6,0,.1,0,.2.3.3.5,0,.2,0,.4,0,.6"/>
    <path class="st3" d="M36.1,38.8c0,.4-.3.6-.6.7-.3.1-.6,0-.9-.2-.3-.2-.5-.6-.6-1.1-.1-.5-.2-.9,0-1.2,0-.4.3-.6.6-.7.3-.1.6,0,.9.2.3.2.5.6.6,1.1.1.5.2.9,0,1.3"/>
  </g>
  <polygon class="st3" points="22.2 19.6 22.2 19.6 22.2 17.5 22.2 13.4 22.2 19.6"/>
  <rect class="st3" x="22.2" y="17.5" width="0" height="2.1"/>
  <g class="st2">
    <path class="st3" d="M29.2,27c0-.2,0-.4,0-.6,0,.2,0,.4,0,.6"/>
    <path class="st3" d="M29.1,26.4c0,.2,0,.4,0,.6,0-.2,0-.4,0-.6M22.2,17.5v2.1h0v-2.1ZM22.2,13.4v4.1h0v-4.1Z"/>
    <path class="st3" d="M27.9,31.3c0-7.3-2.1-11.7-5.6-12,0,0,0,0,0,0v.3h0v-2.1c-4.5,0-7.2,4.4-7.2,14.8l-1.5-1c0-7.6,2.1-12.7,5.9-14.8,1.6-.9,1.9-2.3,1.9-2.9l.9-.3h0s0,4.1,0,4.1c0,0,.1,0,.2,0,0,0,0,0,0,0h0s0,0,0,0c0,0,0,0,0,0,0,0,.1,0,.2,0,.1,0,.3,0,.4,0,0,0,0,0,0,0,0,0,.1,0,.2,0,0,0,.1,0,.2,0,0,0,0,0,0,0,0,0,0,0,0,0,0,0,0,0,.1,0,0,0,0,0,0,0,0,0,0,0,.1,0,.1,0,.2,0,.3.1,0,0,0,0,.1,0,0,0,0,0,0,0,0,0,0,0,0,0,0,0,0,0,0,0,0,0,0,0,.1,0,0,0,0,0,0,0h0s0,0,0,0c0,0,0,0,0,0,0,0,0,0,0,0,0,0,0,0,.1,0,0,0,0,0,0,0,0,0,0,0,0,0,0,0,0,0,0,0,0,0,0,0,0,0,0,0,0,0,.1,0,0,0,0,0,.1,0,0,0,0,0,0,0,0,0,0,0,0,0,0,0,0,0,0,0,0,0,0,0,.1,0h0s0,0,0,0c0,0,0,0,0,0,0,0,0,0,.1,0,0,0,0,0,0,0,0,0,0,0,.1.1,0,0,0,0,0,0,0,0,0,0,0,0,0,0,0,0,0,0,0,0,0,0,0,0,0,0,0,0,0,0,0,0,0,0,0,0,0,0,0,0,0,.1,0,0,0,0,0,0,0,0,0,0,0,0,0,0,0,0,0,.1,0,0,0,.1.1.2,0,0,0,.1.1.2,0,0,0,0,0,.1,0,0,0,0,0,0,0,0,0,0,0,0,0,0,0,0,0,0,0,0,0,0,0,.1,0,0,0,0,0,0,0,0,0,0,0,0,0,0,0,0,0,.1,0,0,0,0,0,0,0,0,0,0,0,0,0,0,0,0,0,.1,0,0,0,0,0,.1,0,0,0,0,0,0,0,0,0,.1,0,.2,0,0,0,0,0,0,0,0,0,.1,0,.2,0,0,0,0,0,0,0,0,0,0,0,0,0,0,0,.1,0,.2,0,0,0,.2.1.3,0,0,0,0,0,0,0,0,0,.2.1.3,0,0,0,0,0,0,0,0,0,.2,0,.3h0c0,0,0,.2,0,.3,0,0,0,0,0,0,0,0,0,.2,0,.3,0,0,0,0,0,0,0,0,0,.2,0,.3,0,0,0,0,0,0,0,.2.1.4.2.6,0,0,0,.1,0,.2,0,0,0,0,0,0,0,.1,0,.3.1.5,0,.2,0,.3,0,.5,0,0,0,.1,0,.2,0,0,0,.1,0,.2,0,0,0,.1,0,.2,0,0,0,.1,0,.2,0,0,0,0,0,0,0,0,0,0,0,.1v.2s0,0,0,0c0,0,0,.2,0,.2,0,.2,0,.4,0,.6,0,0,0,.1,0,.2s0,.1,0,.2c0,0,0,.1,0,.2,0,0,0,.1,0,.2,0,0,0,.2,0,.3,0,0,0,0,0,.1,0,0,0,0,0,0,0,0,0,0,0,0,0,0,0,.1,0,.2,0,.1,0,.2,0,.3,0,0,0,.2,0,.2,0,0,0,.2,0,.2,0,0,0,0,0,0,0,.1,0,.3,0,.4,0,0,0,.2,0,.3,0,0,0,.2,0,.3,0,0,0,.2,0,.2,0,0,0,.2,0,.2,0,0,0,.2,0,.2,0,0,0,.2,0,.2s0,.2,0,.2c0,.2,0,.5,0,.7l-1.5-1ZM25.4,15.9c-1.7-.9-1.5-2.4-1.5-2.5,0-.2,0-.3-.3-.4l-1.2-.3c0,0-.2,0-.3,0l-1.3.4c-.2,0-.3.2-.2.4,0,0,.2,1.5-1.5,2.5-4.1,2.3-6.3,7.7-6.3,15.6s0,.2.2.3l1.9,1.2c.1,0,.3,0,.4,0l1.9-1.2c.1,0,.2-.2.2-.3,0-6.9,1.9-11.2,5-11.5,3.1.3,5,4.7,5,11.5s0,.2.2.3l1.9,1.2c0,0,.1,0,.2,0s.1,0,.2,0l1.9-1.2c.1,0,.2-.2.2-.3,0-8-2.2-13.4-6.3-15.6"/>
    <path class="st3" d="M22.2,11s0,0,0,0l-1.1.2c0-1-.3-2-.6-2.9.8-.7,1.4-1.6,1.7-2.6v5.3ZM24.5,8c-1-.9-1.7-2-2-3.4,0-.1-.1-.2-.3-.2s-.2,0-.3.2c-.3,1.4-1,2.5-2,3.4,0,0-.1.2,0,.3.4,1,.6,2.1.7,3.2,0,0,0,.2.1.2,0,0,.1,0,.2,0l1.4-.3,1.4.3s0,0,0,0c0,0,.1,0,.2,0,0,0,.1-.1.1-.2,0-1.1.2-2.2.6-3.2,0-.1,0-.2,0-.3"/>
  </g>
</svg>