<?xml version="1.0" encoding="UTF-8"?>
<svg id="Calque_1" xmlns="http://www.w3.org/2000/svg" xmlns:xlink="http://www.w3.org/1999/xlink" version="1.1" viewBox="0 0 89.5 37.4">
  <!-- Generator: Adobe Illustrator 30.4.0, SVG Export Plug-In . SVG Version: 2.1.4 Build 226)  -->
  <defs>
    <style>
      .st0 {
        fill: none;
      }

      .st1 {
        fill: #0b2a47;
      }

      .st2 {
        clip-path: url(#clippath);
      }
    </style>
    <clipPath id="clippath">
      <rect class="st0" width="89.5" height="37.4"/>
    </clipPath>
  </defs>
  <g class="st2">
    <path class="st1" d="M3.6,32.3c-1.2-.4-1.8-.6-1.8-1.3s.8-.9,1.6-.9c.6,0,1.2.2,1.8.5.2.1.5,0,.6-.1,0,0,0,0,0,0l.2-.4c.1-.2,0-.5-.2-.6-.7-.5-1.6-.7-2.5-.7-1.8,0-3,.9-3,2.3s1.5,2.2,2.7,2.6c1.3.4,1.8.6,1.8,1.4,0,.8-.9,1-1.7,1-.8,0-1.6-.4-2.2-.9-.1,0-.2-.1-.4-.1-.1,0-.3,0-.3.2l-.2.4c-.1.2,0,.4,0,.6.8.8,1.9,1.2,3.1,1.3,1.9,0,3.2-1,3.2-2.4,0-1.8-1.5-2.3-2.8-2.7"/>
    <path class="st1" d="M9.9,33.8l1.3-3,1.4,3h-2.7ZM11.9,29c0-.2-.2-.3-.4-.3h-.5c-.2,0-.3.1-.4.3l-3.5,7.8c-.1.2,0,.5.2.6,0,0,.1,0,.2,0h.5c.2,0,.3-.1.4-.3l.9-1.9h3.9l.9,1.9c0,.2.2.3.4.3h.5c.3,0,.5-.2.5-.5,0,0,0-.1,0-.2l-3.5-7.8Z"/>
    <path class="st1" d="M17.8,28.7h-.5c-.3,0-.5.2-.5.5v7.8c0,.3.2.5.5.5h.5c.3,0,.5-.2.5-.5v-7.8c0-.3-.2-.5-.5-.5"/>
    <path class="st1" d="M27.5,28.7h-.5c-.3,0-.5.2-.5.5v5.6l-4.4-5.9c0-.1-.2-.2-.4-.2h-.5c-.3,0-.5.2-.5.5v7.8c0,.3.2.5.5.5h.5c.3,0,.5-.2.5-.5v-5.6l4.3,5.9c0,.1.2.2.4.2h.5c.3,0,.5-.2.5-.5v-7.8c0-.3-.2-.5-.5-.5"/>
    <path class="st1" d="M35.4,28.7h-5.7c-.3,0-.5.2-.5.5h0v.5c0,.3.2.5.5.5h2.2v6.8c0,.3.2.5.5.5h.5c.3,0,.5-.2.5-.5v-6.8h2.2c.3,0,.5-.2.5-.5h0v-.5c0-.3-.2-.5-.5-.5"/>
    <path class="st1" d="M38.9,32.9h-2.5c-.3,0-.5.2-.5.5v.4c0,.3.2.5.5.5h2.5c.3,0,.5-.2.5-.5h0v-.4c0-.3-.2-.5-.5-.5h0"/>
    <path class="st1" d="M48.5,32.7h-1.8c-.3,0-.5.2-.5.5v.5c0,.3.2.5.5.5h.9v1.4c-.5.4-1.2.6-1.8.6-1.7,0-3.1-1.3-3.1-3s1.4-3,3.1-3c.8,0,1.6.3,2.1.8.2.2.5.2.6,0,0,0,0,0,0,0l.3-.3c.2-.2.1-.5,0-.6-.8-.7-1.9-1.1-3-1.1-2.5,0-4.5,1.9-4.5,4.3s2,4.3,4.5,4.3c1.1,0,2.2-.4,3.1-1.1.1,0,.2-.2.2-.3v-2.8c0-.3-.2-.5-.5-.5"/>
    <path class="st1" d="M55,36c-1.7,0-3.1-1.3-3.1-3s1.4-3,3.1-3,3.1,1.3,3.1,3-1.4,3-3.1,3M55,28.7c-2.5,0-4.5,1.9-4.5,4.3s2,4.4,4.5,4.4,4.5-2,4.5-4.4-2-4.3-4.5-4.3"/>
    <path class="st1" d="M62.4,33.6h2.2c.7,0,1.9.2,1.9,1.2s-1,1.2-1.9,1.2h-2.2v-2.4M64.6,32.2h-2.2v-2.1h2.2c.7,0,1.5.2,1.5,1.1s-.5,1.1-1.5,1.1M66.8,32.8c.5-.4.8-1.1.7-1.7,0-1.5-1.1-2.4-2.9-2.4h-3.2c-.3,0-.5.2-.5.5v7.8c0,.3.2.5.5.5h3.2c2,0,3.2-.9,3.2-2.5,0-.8-.4-1.6-1.1-2"/>
    <path class="st1" d="M71.5,33.8l1.3-3,1.4,3h-2.7M73.5,29c0-.2-.2-.3-.4-.3h-.5c-.2,0-.3.1-.4.3l-3.5,7.8c-.1.2,0,.5.2.6,0,0,.1,0,.2,0h.5c.2,0,.3-.1.4-.3l.9-1.9h3.9l.9,1.9c0,.2.2.3.4.3h.5c.3,0,.5-.2.5-.5s0-.1,0-.2l-3.6-7.8Z"/>
    <path class="st1" d="M79.4,28.7h-.5c-.3,0-.5.2-.5.5v7.8c0,.3.2.5.5.5h.5c.3,0,.5-.2.5-.5v-7.8c0-.3-.2-.5-.5-.5"/>
    <path class="st1" d="M89.1,28.7h-.5c-.3,0-.5.2-.5.5h0v5.6l-4.4-5.9c0-.1-.2-.2-.4-.2h-.5c-.3,0-.5.2-.5.5v7.8c0,.3.2.5.5.5h.5c.3,0,.5-.2.5-.5h0v-5.6l4.3,5.9c0,.1.2.2.4.2h.5c.3,0,.5-.2.5-.5h0v-7.8c0-.3-.2-.5-.5-.5h0"/>
    <path class="st1" d="M77.5,24.2h-5.6s-4.9-4.8-4.9-4.8c-.2-.2-.5-.3-.8-.1-.3.1-.4.4-.4.6v4.4h-1.4v-10.8c0-.2,0-.4-.2-.5l-4-3.8c-.1-.1-.3-.2-.5-.2h-2c-.4,0-.7.3-.7.7v14.6h-1.4V.7c0-.3-.2-.5-.4-.6-.3-.1-.6,0-.8.2l-6.7,6.8c-.1.1-.2.3-.2.5v5.2l-2.7-2c-.3-.2-.6-.2-.9,0l-6.2,5c-.2.1-.3.3-.3.5v8h-1.4v-4.4c0-1.5-1.1-3.2-3-3.2s-3,1.6-3,3.2v4.4h-1.4v-3c0-1.2-.8-2.5-2.4-2.5s-2.4,1.3-2.4,2.5v3h-1.4v-1.8c0-1-1-1.9-2.1-1.9s-2.1.9-2.1,1.9v1.8h-6.2c-.4,0-.7.3-.7.7,0,.4.3.7.7.7,0,0,0,0,0,0h6.9c.4,0,.7-.3.7-.7v-2.4c0-.4.3-.6.7-.6.4,0,.7.3.7.7v2.4c0,.4.3.7.7.7h2.8c.4,0,.7-.3.7-.7v-3.7c0-.4.2-1.1,1-1.1s1,.7,1,1.1v3.7c0,.4.3.7.7.7h2.8c.4,0,.7-.3.7-.7v-5.1c0-.6.3-1.8,1.6-1.8s1.6,1.1,1.6,1.8v5.1c0,.4.3.7.7.7h2.8c.4,0,.7-.3.7-.7v-8.3h0s5.5-4.4,5.5-4.4l3.1,2.3v10.4c0,.4.3.7.7.7h2.8c.4,0,.7-.3.7-.7v-8.7c0-.2-.1-.4-.3-.6l-2.5-1.9v-6h0s5.2-5.4,5.2-5.4v22.5c0,.4.3.7.7.7h2.8c.4,0,.7-.3.7-.7v-14.6h1.1s3.6,3.4,3.6,3.4v11.2c0,.4.3.7.7.7h2.8c.4,0,.7-.3.7-.7v-3.4l3.9,3.9c.1.1.3.2.5.2h5.8c.4,0,.7-.3.7-.7s-.3-.7-.7-.7M50.3,16.6v7.6h-1.4v-8.7l1.4,1Z"/>
  </g>
</svg>