<?xml version="1.0" encoding="UTF-8"?>
<svg id="Calque_1" xmlns="http://www.w3.org/2000/svg" version="1.1" viewBox="0 0 51.1 26.8">
  <!-- Generator: Adobe Illustrator 30.4.0, SVG Export Plug-In . SVG Version: 2.1.4 Build 226)  -->
  <defs>
    <style>
      .st0 {
        fill: #0a2a46;
      }
    </style>
  </defs>
  <path class="st0" d="M22,15.6c-.9-1.9-2.2-2.7-2.9-3,1.5-.7,2.3-1.6,2.9-3.4v6.4ZM40.2.6l-3.7,15-3.7-15h-10.8v5.5C20.7,1.3,16.1,0,11.8,0,6.6,0,1.2,2.2,1,9h7.2c0-2.1,1.6-3.3,3.4-3.2,2.2,0,3.2.9,3.3,2.4,0,1.3-.8,2.2-3.2,2.2h-2.4v5h2.2c1.2,0,3,.7,3,2.4,0,2.1-1.4,3-3.2,3.1-3.2-.1-3.8-2.6-3.8-4.7H0c0,1.4-.3,10.8,11.4,10.7,5.6,0,9.5-2.3,10.6-5.5v5h7.3V10.1l4,16.2h6.4l4-16.2v16.2h7.3V.6h-10.8Z"/>
</svg>